<svg id="Capa_1" enable-background="new 0 0 512.002 512.002" height="512" viewBox="0 0 512.002 512.002" width="512" xmlns="http://www.w3.org/2000/svg"><g><path d="m333.628 82.299c-7.315-2.375-14.82-3.918-22.408-4.649-3.383-43.38-39.737-77.65-83.97-77.65-46.457 0-84.253 37.796-84.253 84.254v219.07c-24.693 23.831-38.154 56.815-37.066 91.207 2.006 63.367 53.193 114.924 116.533 117.377 1.62.063 3.234.094 4.845.094 31.506-.001 61.19-11.946 84.043-33.932 24.04-23.127 37.279-54.184 37.279-87.45 0-32.892-13.477-64.451-37.127-87.294l-.002-16.989c41.217-4.004 76.448-31.921 89.45-71.957 17.855-54.971-12.345-114.222-67.324-132.081zm48.301 125.902c-11.362 34.987-43.694 58.557-80.454 58.649-5.371-.081-10.083 4.655-9.975 10.025l.004 30.804c0 2.842 1.21 5.549 3.326 7.446 21.481 19.251 33.801 46.767 33.801 75.494 0 27.777-11.061 53.715-31.145 73.037-20.066 19.304-46.431 29.345-74.249 28.266-52.894-2.048-95.641-45.105-97.316-98.025-.95-29.989 11.351-58.701 33.749-78.772 2.117-1.897 3.326-4.605 3.326-7.447v-223.424c0-35.43 28.824-64.254 64.253-64.254 35.43 0 64.254 28.824 64.254 64.253.001.146-.004 112.596-.004 112.596 0 5.523 4.477 10 10 10.001 5.522 0 10-4.477 10-9.999l.003-99.067c5.393.663 10.729 1.843 15.947 3.538 44.49 14.45 68.929 62.397 54.48 106.879z"/><path d="m339.812 63.277c1.027.333 2.067.492 3.091.492 4.215 0 8.136-2.688 9.509-6.914l6.178-19.021c1.706-5.253-1.169-10.894-6.421-12.6-5.254-1.706-10.894 1.169-12.6 6.421l-6.178 19.021c-1.707 5.254 1.168 10.895 6.421 12.601z"/><path d="m371.383 297.585c-2.508-4.921-8.532-6.877-13.45-4.369-4.921 2.508-6.877 8.53-4.369 13.45l9.081 17.819c1.767 3.467 5.277 5.461 8.918 5.461 1.528 0 3.079-.351 4.533-1.092 4.921-2.508 6.877-8.53 4.369-13.45z"/><path d="m451.594 220.318-19.021-6.178c-5.253-1.706-10.893 1.169-12.6 6.421-1.706 5.253 1.169 10.894 6.421 12.6l19.022 6.178c1.027.333 2.067.492 3.091.492 4.215 0 8.136-2.688 9.509-6.913 1.706-5.253-1.169-10.894-6.422-12.6z"/><path d="m425.917 129.686 17.819-9.081c4.921-2.508 6.877-8.53 4.369-13.45-2.508-4.921-8.531-6.878-13.45-4.369l-17.819 9.082c-4.921 2.508-6.877 8.53-4.369 13.45 1.767 3.467 5.277 5.461 8.918 5.461 1.527 0 3.077-.351 4.532-1.093z"/><path d="m262.001 327.699v-243.448c0-19.162-15.589-34.751-34.752-34.751-19.162 0-34.751 15.589-34.751 34.751v243.448c-22.755 12.569-37.127 36.593-37.127 62.92 0 39.634 32.244 71.878 71.878 71.878s71.878-32.244 71.878-71.878c.001-26.327-14.37-50.351-37.126-62.92zm-34.751-258.199c8.134 0 14.752 6.617 14.752 14.751v15.249h-29.503v-15.249c0-8.134 6.617-14.751 14.751-14.751zm0 372.997c-28.605 0-51.878-23.272-51.878-51.878 0-20.621 12.22-39.286 31.132-47.552 3.642-1.592 5.995-5.189 5.995-9.163v-214.404h29.503v214.404c0 3.974 2.353 7.571 5.995 9.163 18.912 8.266 31.132 26.931 31.132 47.552-.001 28.606-23.273 51.878-51.879 51.878z"/><path d="m63.494 156.795h49.502c5.523 0 10-4.477 10-10s-4.477-10-10-10h-49.502c-5.523 0-10 4.477-10 10s4.477 10 10 10z"/><path d="m88.245 94.917h24.751c5.523 0 10-4.477 10-10s-4.477-10-10-10h-24.751c-5.523 0-10 4.477-10 10s4.477 10 10 10z"/><path d="m122.997 270.551c0-5.523-4.477-10-10-10h-49.503c-5.523 0-10 4.477-10 10s4.477 10 10 10h49.502c5.524 0 10.001-4.477 10.001-10z"/><path d="m112.997 198.673h-24.752c-5.523 0-10 4.477-10 10s4.477 10 10 10h24.751c5.523 0 10-4.477 10-10 .001-5.523-4.476-10-9.999-10z"/><circle cx="301.5" cy="236.85" r="10"/></g></svg>