<svg id="Capa_1" enable-background="new 0 0 512.002 512.002" height="512" viewBox="0 0 512.002 512.002" width="512" xmlns="http://www.w3.org/2000/svg"><g><path d="m249.63 327.699v-243.448c0-19.162-15.589-34.751-34.752-34.751-19.162 0-34.751 15.589-34.751 34.751v243.448c-22.755 12.568-37.127 36.593-37.127 62.92 0 39.634 32.244 71.878 71.878 71.878s71.878-32.244 71.878-71.878c.001-26.327-14.37-50.351-37.126-62.92zm-34.751-258.199c8.134 0 14.752 6.617 14.752 14.751v176.3h-29.502v-176.3c-.001-8.134 6.616-14.751 14.75-14.751zm0 372.997c-28.605 0-51.878-23.272-51.878-51.878 0-20.621 12.22-39.286 31.132-47.552 3.642-1.592 5.995-5.189 5.995-9.163v-53.353h29.502v53.353c0 3.974 2.353 7.571 5.995 9.163 18.912 8.266 31.131 26.931 31.131 47.552.001 28.606-23.272 51.878-51.877 51.878z"/><circle cx="289.129" cy="146.795" r="10"/><path d="m51.123 156.795h49.502c5.523 0 10-4.477 10-10s-4.477-10-10-10h-49.502c-5.523 0-10 4.477-10 10s4.477 10 10 10z"/><path d="m75.874 94.917h24.752c5.523 0 10-4.477 10-10s-4.477-10-10-10h-24.752c-5.523 0-10 4.477-10 10s4.477 10 10 10z"/><path d="m110.625 270.551c0-5.523-4.477-10-10-10h-49.502c-5.523 0-10 4.477-10 10s4.477 10 10 10h49.502c5.523 0 10-4.477 10-10z"/><path d="m100.625 198.673h-24.751c-5.523 0-10 4.477-10 10s4.477 10 10 10h24.752c5.523 0 10-4.477 10-10-.001-5.523-4.478-10-10.001-10z"/><path d="m433.647 280.263c-2.966-4.659-9.146-6.031-13.806-3.064l-19.963 12.712v-23.277c0-5.523-4.478-10-10-10s-10 4.477-10 10v23.277l-19.962-12.712c-4.66-2.966-10.84-1.595-13.806 3.064-2.967 4.658-1.596 10.839 3.063 13.806l22.087 14.065-22.087 14.065c-4.659 2.967-6.03 9.148-3.063 13.806 1.906 2.994 5.14 4.63 8.444 4.63 1.837 0 3.696-.506 5.361-1.567l19.962-12.711v23.276c0 5.523 4.478 10 10 10s10-4.477 10-10v-23.277l19.963 12.712c1.665 1.06 3.523 1.567 5.361 1.567 3.305 0 6.538-1.637 8.444-4.63 2.967-4.658 1.596-10.839-3.064-13.806l-22.087-14.065 22.087-14.065c4.662-2.967 6.033-9.148 3.066-13.806z"/><path d="m430.503 137.715c-4.568-45.288-42.912-80.755-89.384-80.755-15.329 0-30.298 3.943-43.533 11.275-7.505-38.821-41.727-68.235-82.707-68.235-46.458 0-84.253 37.796-84.253 84.254v219.07c-24.692 23.831-38.154 56.815-37.065 91.207 2.006 63.367 53.193 114.924 116.533 117.377 1.62.063 3.234.094 4.845.094 31.505-.001 61.189-11.946 84.042-33.932 24.04-23.127 37.279-54.184 37.279-87.45 0-32.892-13.477-64.45-37.127-87.294v-66.696h121.826c27.526 0 49.92-22.394 49.92-49.92 0-24.258-17.399-44.53-40.376-48.995zm-9.544 78.915h-121.826v-29.835c0-5.523-4.477-10-10-10-5.522 0-10 4.477-10 10v39.758c0 .026-.004.051-.004.077s.004.051.004.077v80.971c0 2.842 1.209 5.55 3.326 7.447 21.48 19.251 33.801 46.767 33.801 75.494 0 27.777-11.061 53.715-31.145 73.037-20.065 19.304-46.427 29.352-74.249 28.266-52.894-2.048-95.641-45.105-97.316-98.025-.95-29.989 11.352-58.701 33.749-78.772 2.117-1.897 3.326-4.605 3.326-7.447v-223.424c0-35.43 28.824-64.254 64.254-64.254s64.253 28.824 64.253 64.254v2.191 20.35c0 5.523 4.478 10 10 10 5.523 0 10-4.477 10-10v-15.785c12.058-9.08 26.795-14.05 41.986-14.05 35.501 0 64.879 26.633 69.256 60.964-5.84 1.262-11.422 3.568-16.493 6.847-4.638 2.999-5.967 9.189-2.968 13.827 1.913 2.96 5.127 4.571 8.407 4.571 1.859 0 3.741-.518 5.42-1.604 4.811-3.111 10.399-4.758 16.16-4.769.019 0 .037.003.056.003 16.498 0 29.92 13.417 29.92 29.91.003 16.499-13.419 29.921-29.917 29.921z"/></g></svg>