<svg id="Capa_1" enable-background="new 0 0 512 512" height="512" viewBox="0 0 512 512" width="512" xmlns="http://www.w3.org/2000/svg"><g><path d="m366 0h-220c-27.57 0-50 22.43-50 50v412c0 27.57 22.43 50 50 50h220c27.57 0 50-22.43 50-50v-151c0-5.523-4.477-10-10-10s-10 4.477-10 10v101h-280v-312h280v131c0 5.523 4.477 10 10 10s10-4.477 10-10v-181c0-27.57-22.43-50-50-50zm30 432v30c0 16.542-13.458 30-30 30h-220c-16.542 0-30-13.458-30-30v-30zm-280-352v-30c0-16.542 13.458-30 30-30h220c16.542 0 30 13.458 30 30v30z"/><circle cx="406" cy="271" r="10"/><path d="m276 40h-40c-5.523 0-10 4.477-10 10s4.477 10 10 10h40c5.523 0 10-4.477 10-10s-4.477-10-10-10z"/><path d="m356 235.708c0-16.653-11.34-30.708-26.702-34.85-4.271-30.149-30.249-53.412-61.559-53.412-21.014 0-40.063 10.287-51.528 27.345-3.611-.836-7.315-1.257-11.08-1.257-27.09 0-49.13 22.04-49.13 49.13s22.04 49.13 49.13 49.13h114.783c19.897.001 36.086-16.187 36.086-36.086zm-36.087 16.087h-114.783c-16.063 0-29.13-13.068-29.13-29.13s13.068-29.13 29.13-29.13c4.047 0 7.971.819 11.663 2.435 7.361 3.228 13.117 9.418 15.791 16.983 1.451 4.105 5.309 6.67 9.428 6.67 1.106 0 2.231-.185 3.333-.575 5.207-1.84 7.936-7.554 6.096-12.761-3.231-9.142-9.138-17.079-16.786-22.853 7.891-10.029 19.918-15.988 33.084-15.988 20.405 0 37.468 14.568 41.345 33.849-3.069.965-6.013 2.325-8.747 4.093-4.638 2.999-5.966 9.19-2.967 13.828 1.914 2.96 5.127 4.571 8.407 4.571 1.86 0 3.743-.519 5.421-1.604 2.592-1.676 5.606-2.563 8.716-2.563 8.871 0 16.087 7.217 16.087 16.087s-7.217 16.088-16.088 16.088z"/><path d="m216 364.553c5.523 0 10-4.477 10-10v-10h10c5.523 0 10-4.477 10-10s-4.477-10-10-10h-10v-10c0-5.523-4.477-10-10-10s-10 4.477-10 10v10h-10c-5.523 0-10 4.477-10 10s4.477 10 10 10h10v10c0 5.523 4.477 10 10 10z"/><path d="m266 314.553v40c0 5.523 4.477 10 10 10s10-4.477 10-10v-40c0-5.523-4.477-10-10-10s-10 4.477-10 10z"/><path d="m306 314.553v40c0 5.523 4.477 10 10 10s10-4.477 10-10v-40c0-5.523-4.477-10-10-10s-10 4.477-10 10z"/></g></svg>