<svg id="Capa_1" enable-background="new 0 0 512 512" height="512" viewBox="0 0 512 512" width="512" xmlns="http://www.w3.org/2000/svg"><g><path d="m254.066 300.892c5.522 0 10-4.477 10-10v-59.892h49.867c5.522 0 10-4.477 10-10s-4.478-10-10-10h-49.867v-49.892h49.867c5.522 0 10-4.477 10-10s-4.478-10-10-10h-59.867c-5.523 0-10 4.477-10 10v139.783c0 5.524 4.478 10.001 10 10.001z"/><path d="m178.066 203.118c16.542 0 30-13.458 30-30s-13.458-30-30-30-30 13.458-30 30 13.458 30 30 30zm0-40c5.514 0 10 4.486 10 10s-4.486 10-10 10-10-4.486-10-10 4.486-10 10-10z"/><path d="m462 382v-322c0-5.523-4.478-10-10-10h-392c-5.523 0-10 4.477-10 10v322c0 5.523 4.477 10 10 10h392c5.522 0 10-4.477 10-10zm-20-10h-372v-302h372z"/><path d="m403.63 472c5.522 0 10-4.477 10-10v-10h10c5.522 0 10-4.477 10-10s-4.478-10-10-10h-10v-10c0-5.523-4.478-10-10-10-5.523 0-10 4.477-10 10v10h-10c-5.523 0-10 4.477-10 10s4.477 10 10 10h10v10c0 5.523 4.477 10 10 10z"/><path d="m88.37 432c-5.523 0-10 4.477-10 10s4.477 10 10 10h40c5.523 0 10-4.477 10-10s-4.477-10-10-10z"/><path d="m442 0h-372c-38.598 0-70 31.402-70 70v372c0 38.598 31.402 70 70 70h372c38.598 0 70-31.402 70-70v-250.213c0-5.523-4.478-10-10-10s-10 4.477-10 10v250.213c0 27.57-22.43 50-50 50h-372c-27.57 0-50-22.43-50-50v-372c0-27.57 22.43-50 50-50h372c27.57 0 50 22.43 50 50v41.787c0 5.523 4.478 10 10 10s10-4.477 10-10v-41.787c0-38.598-31.402-70-70-70z"/><circle cx="502" cy="151.787" r="10"/><path d="m184.37 412c-5.523 0-10 4.477-10 10v40c0 5.523 4.477 10 10 10h143.26c5.522 0 10-4.477 10-10v-40c0-5.523-4.478-10-10-10zm133.26 40h-123.26v-20h123.26z"/></g></svg>