<svg id="Capa_1" enable-background="new 0 0 512 512" height="512" viewBox="0 0 512 512" width="512" xmlns="http://www.w3.org/2000/svg"><g><circle cx="502" cy="288.638" r="10"/><path d="m502 60h-63.617v-20c0-22.056-17.944-40-40-40s-40 17.944-40 40v20h-62.383v-20c0-22.056-17.944-40-40-40s-40 17.944-40 40v20h-62.383v-20c0-22.056-17.944-40-40-40s-40 17.944-40 40v20h-63.617c-5.523 0-10 4.478-10 10v106.495.005 325.5c0 5.522 4.477 10 10 10h492c5.523 0 10-4.478 10-10v-173.361c0-5.522-4.477-10-10-10s-10 4.478-10 10v163.361h-472v-305.505h472v62.144c0 5.522 4.477 10 10 10s10-4.478 10-10v-72.139-.005-106.495c0-5.522-4.477-10-10-10zm-123.617-20c0-11.028 8.972-20 20-20s20 8.972 20 20v29.942c0 .02-.003.039-.003.058s.003.039.003.058v9.942c0 11.028-8.972 20-20 20s-20-8.972-20-20zm-142.383 0c0-11.028 8.972-20 20-20s20 8.972 20 20v40c0 11.028-8.972 20-20 20s-20-8.972-20-20zm-122.383-20c11.028 0 20 8.972 20 20v40c0 11.028-8.972 20-20 20s-20-8.972-20-20v-9.942c0-.02.003-.039.003-.058s-.003-.039-.003-.058v-29.942c0-11.028 8.972-20 20-20zm-93.617 146.495v-86.495h53.617c0 22.056 17.944 40 40 40s40-17.944 40-40h62.383c0 22.056 17.944 40 40 40s40-17.944 40-40h62.383c0 22.056 17.944 40 40 40s40-17.944 40-40h53.617v86.495z"/><path d="m274.913 245.189c-17.976 0-35.453 5.091-50.541 14.722-12.119 7.736-22.263 18.093-29.714 30.267-6.665-1.966-13.567-2.959-20.614-2.959-40.276 0-73.043 32.767-73.043 73.043s32.767 73.044 73.043 73.044h184.928c28.689 0 52.029-23.34 52.029-52.029 0-25.423-18.33-46.646-42.467-51.147-4.603-47.602-44.834-84.941-93.621-84.941zm116.087 136.087c0 17.661-14.368 32.029-32.029 32.029h-184.928c-29.248 0-53.043-23.796-53.043-53.044s23.795-53.043 53.043-53.043c7.368 0 14.514 1.493 21.239 4.435 13.403 5.876 23.884 17.147 28.754 30.925 1.451 4.105 5.309 6.67 9.428 6.67 1.106 0 2.231-.185 3.333-.574 5.207-1.841 7.936-7.555 6.095-12.762-5.475-15.487-16.099-28.669-29.853-37.39 13.602-20.769 36.536-33.334 61.873-33.334 37.816 0 69.081 28.497 73.502 65.141-6.261 1.292-12.245 3.725-17.666 7.23-4.638 2.999-5.966 9.191-2.967 13.828 1.914 2.959 5.126 4.57 8.406 4.57 1.86 0 3.743-.519 5.421-1.604 5.167-3.342 11.17-5.108 17.361-5.108 17.663.003 32.031 14.371 32.031 32.031z"/></g></svg>