<svg id="Capa_1" enable-background="new 0 0 512 512" height="512" viewBox="0 0 512 512" width="512" xmlns="http://www.w3.org/2000/svg"><g><g><path d="m320.905 512c-64.695 0-122.345-33.614-154.211-89.917s-31.009-123.03 2.294-178.496l143.343-238.735c1.808-3.01 5.062-4.852 8.574-4.852s6.766 1.842 8.573 4.852l63.461 105.692c2.843 4.734 1.31 10.878-3.426 13.721-4.735 2.845-10.878 1.31-13.721-3.426l-54.888-91.414-134.77 224.457c-29.544 49.205-30.305 108.401-2.035 158.35 28.269 49.949 79.412 79.768 136.806 79.768 57.393 0 108.536-29.819 136.806-79.768 28.27-49.948 27.509-109.145-2.035-158.351l-38.701-64.456c-2.843-4.734-1.31-10.878 3.426-13.721s10.879-1.31 13.721 3.426l38.701 64.456c33.304 55.466 34.161 122.193 2.294 178.496-31.868 56.305-89.516 89.918-154.212 89.918z"/></g><g><circle cx="404.956" cy="149.985" r="10"/></g><g><path d="m72.298 279.846c-21.4 0-40.47-11.119-51.011-29.743-10.541-18.625-10.257-40.697.759-59.044l41.679-69.415c1.808-3.011 5.062-4.853 8.573-4.853s6.766 1.842 8.573 4.853l41.679 69.415c11.016 18.347 11.3 40.419.759 59.043-10.541 18.625-29.61 29.744-51.011 29.744zm0-133.629-33.105 55.137c-7.257 12.087-7.444 26.628-.5 38.898 6.944 12.269 19.507 19.595 33.605 19.595 14.099 0 26.662-7.325 33.606-19.595s6.757-26.811-.5-38.898z"/></g><g><path d="m170.798 105.484c-14.257 0-26.962-7.407-33.984-19.815-7.023-12.408-6.834-27.113.505-39.337l24.906-41.479c1.807-3.011 5.061-4.853 8.573-4.853s6.766 1.842 8.573 4.852l24.906 41.479c7.339 12.224 7.528 26.929.505 39.337-7.022 12.409-19.727 19.816-33.984 19.816zm0-76.058-16.332 27.201c-3.581 5.964-3.673 13.138-.247 19.19 3.426 6.054 9.624 9.667 16.579 9.667 6.956 0 13.153-3.613 16.579-9.667 3.426-6.053 3.334-13.227-.246-19.19z"/></g></g></svg>