<svg id="Capa_1" enable-background="new 0 0 512 512" height="512" viewBox="0 0 512 512" width="512" xmlns="http://www.w3.org/2000/svg"><g><path d="m477.723 127.953c-2.766-4.779-8.881-6.413-13.664-3.646-4.78 2.767-6.413 8.884-3.646 13.664 20.664 35.709 31.587 76.522 31.587 118.029 0 130.131-105.869 236-236 236s-236-105.869-236-236 105.869-236 236-236c57.361 0 112.655 20.826 155.696 58.642 4.149 3.645 10.468 3.235 14.113-.912 3.645-4.149 3.236-10.468-.912-14.113-46.693-41.024-106.674-63.617-168.897-63.617-68.38 0-132.667 26.629-181.02 74.98-48.351 48.353-74.98 112.64-74.98 181.02s26.629 132.667 74.98 181.02c48.353 48.351 112.64 74.98 181.02 74.98s132.667-26.629 181.02-74.98c48.351-48.353 74.98-112.64 74.98-181.02 0-45.02-11.853-89.298-34.277-128.047z"/><ellipse cx="446.175" cy="99.95" rx="10" ry="10" transform="matrix(.383 -.924 .924 .383 183.09 473.913)"/><path d="m280.86 225.079c-1.204-1.522-2.86-2.639-4.686-3.267l-101.406-33.513c-4.217-1.392-8.847.16-11.369 3.816-2.521 3.655-2.331 8.536.47 11.983l67.334 82.899c1.21 1.469 2.821 2.578 4.624 3.191l101.406 33.513c9.06 3.359 17.29-8.462 10.899-15.8zm-23.634 11.534-18.914 27.416-37.378-46.02zm-2.452 38.774 18.914-27.416 37.378 46.02z"/><path d="m313.647 47.813c-27.587-7.657-55.128-7.813-57.647-7.813s-30.06.156-57.647 7.813c-68.238 18.939-131.618 82.344-150.544 150.555-7.653 27.58-7.809 55.123-7.809 57.632s.156 30.052 7.809 57.632c18.929 68.222 82.325 131.626 150.555 150.558 27.582 7.654 55.125 7.81 57.636 7.81 2.512 0 30.054-.156 57.636-7.81 68.229-18.933 131.626-82.335 150.555-150.558 7.653-27.58 7.809-55.123 7.809-57.632 0-2.51-.156-30.052-7.809-57.633-18.926-68.21-82.306-131.615-150.544-150.554zm87.769 339.461-27.389-27.389c-3.906-3.904-10.236-3.904-14.143 0-3.905 3.905-3.905 10.237 0 14.143l27.389 27.389c-34.773 31.421-80.826 50.583-131.273 50.583s-96.5-19.162-131.274-50.584l27.389-27.389c3.905-3.905 3.905-10.237 0-14.143-3.906-3.904-10.236-3.904-14.143 0l-27.389 27.389c-31.421-34.773-50.583-80.826-50.583-131.273s19.162-96.5 50.584-131.274l27.389 27.389c1.953 1.952 4.512 2.929 7.071 2.929 2.56 0 5.118-.977 7.071-2.929 3.905-3.905 3.905-10.237 0-14.143l-27.389-27.389c34.774-31.421 80.827-50.583 131.274-50.583s96.5 19.162 131.274 50.584l-27.389 27.389c-3.905 3.905-3.905 10.237 0 14.143 1.953 1.952 4.512 2.929 7.071 2.929 2.56 0 5.118-.977 7.071-2.929l27.389-27.389c31.422 34.773 50.584 80.826 50.584 131.273s-19.162 96.5-50.584 131.274z"/><path d="m256 372c-5.514 0-10-4.486-10-10s4.486-10 10-10c3.328 0 6.43 1.65 8.298 4.416 3.093 4.576 9.308 5.778 13.885 2.688 4.576-3.092 5.779-9.308 2.688-13.885-5.593-8.278-14.891-13.219-24.871-13.219-16.542 0-30 13.458-30 30s13.458 30 30 30c5.514 0 10 4.486 10 10s-4.486 10-10 10c-3.328 0-6.43-1.65-8.298-4.416-3.093-4.575-9.308-5.777-13.885-2.688-4.576 3.092-5.779 9.308-2.688 13.885 5.593 8.278 14.891 13.219 24.871 13.219 16.542 0 30-13.458 30-30s-13.458-30-30-30z"/><path d="m236 180c5.523 0 10-4.477 10-10v-37.64l21.056 42.111c1.722 3.443 5.221 5.529 8.942 5.529.762 0 1.532-.088 2.3-.269 4.514-1.065 7.702-5.095 7.702-9.732v-79.999c0-5.522-4.478-10-10-10s-10 4.478-10 10v37.64l-21.056-42.111c-2.074-4.148-6.725-6.323-11.242-5.261-4.513 1.065-7.702 5.094-7.702 9.732v80c0 5.523 4.477 10 10 10z"/></g></svg>