<svg id="Capa_1" enable-background="new 0 0 512 512" height="512" viewBox="0 0 512 512" width="512" xmlns="http://www.w3.org/2000/svg"><g><path d="m502 415.461h-64.865c-1.465-8.19-4.69-15.773-9.277-22.346l7.723-7.724c3.905-3.905 3.905-10.237 0-14.143-3.905-3.904-10.237-3.904-14.142 0l-7.723 7.724c-6.572-4.587-14.156-7.812-22.346-9.277v-10.902c0-5.522-4.477-10-10-10s-10 4.478-10 10v10.902c-8.19 1.465-15.773 4.69-22.346 9.277l-7.723-7.723c-3.905-3.903-10.237-3.904-14.142 0-3.905 3.905-3.906 10.237-.001 14.143l7.723 7.724c-4.587 6.572-7.812 14.156-9.277 22.346h-40.051c-5.523 0-10 4.478-10 10s4.477 10 10 10h206.447v30h-472v-30h185.553c5.523 0 10-4.478 10-10s-4.477-10-10-10h-33.779v-92.407h30c27.57 0 50-22.43 50-50v-12.186c0-9.761-4.688-18.446-11.929-23.928l17.285-17.285c3.905-3.905 3.905-10.237 0-14.143-3.905-3.904-10.237-3.904-14.143 0l-11.213 11.213v-15.857c0-5.522-4.477-10-10-10s-10 4.478-10 10v15.857l-11.213-11.213c-3.905-3.904-10.237-3.904-14.143 0-3.905 3.905-3.905 10.237 0 14.143l17.285 17.285c-7.241 5.482-11.93 14.167-11.93 23.928v2.186h-20v-51.814c0-12.424-6.512-23.348-16.297-29.561l16.652-16.653c3.905-3.905 3.905-10.237-.001-14.143-3.905-3.904-10.237-3.904-14.142 0l-11.213 11.213v-15.857c0-5.523-4.477-10-10-10s-10 4.477-10 10v15.857l-11.213-11.213c-3.906-3.903-10.237-3.903-14.142 0-3.905 3.905-3.906 10.237 0 14.143l16.652 16.653c-9.785 6.213-16.297 17.137-16.297 29.561v109h-20v-23.278c0-9.761-4.688-18.446-11.929-23.928l17.285-17.285c3.905-3.905 3.905-10.237 0-14.143-3.905-3.904-10.237-3.904-14.143 0l-11.213 11.213v-15.857c0-5.522-4.477-10-10-10s-10 4.478-10 10v15.857l-11.213-11.213c-3.905-3.904-10.237-3.904-14.143 0-3.905 3.905-3.905 10.237 0 14.143l17.285 17.285c-7.241 5.482-11.929 14.167-11.929 23.928v33.278c0 27.57 22.43 50 50 50h30v35.222h-91.772c-5.523 0-10 4.478-10 10v50c0 5.522 4.477 10 10 10h492c5.523 0 10-4.478 10-10v-50c0-5.524-4.477-10.002-10-10.002zm-120.631-26.667c16.751 0 30.905 11.296 35.27 26.667h-70.539c4.365-15.371 18.518-26.667 35.269-26.667zm-269.595-28.555h-40c-16.542 0-30-13.458-30-30v-33.278c0-5.514 4.486-10 10-10s10 4.486 10 10v33.278c0 5.522 4.477 10 10 10h40c5.523 0 10-4.478 10-10v-119c0-8.271 6.729-15 15-15s15 6.729 15 15v61.814c0 5.522 4.477 10 10 10h40c5.523 0 10-4.478 10-10v-12.186c0-5.514 4.486-10 10-10s10 4.486 10 10v12.186c0 16.542-13.458 30-30 30h-40c-5.523 0-10 4.478-10 10v102.407h-30v-45.222c0-5.521-4.477-9.999-10-9.999z"/><circle cx="245.553" cy="425.461" r="10"/><path d="m384.221 222.097c37.374 0 67.779-30.405 67.779-67.779 0-37.373-30.405-67.778-67.779-67.778s-67.779 30.405-67.779 67.778 30.406 67.779 67.779 67.779zm0-115.558c26.345 0 47.779 21.434 47.779 47.778 0 26.346-21.434 47.779-47.779 47.779s-47.779-21.434-47.779-47.779c0-26.344 21.434-47.778 47.779-47.778z"/><path d="m384.221 66.539c5.523 0 10-4.478 10-10v-20c0-5.523-4.477-10-10-10s-10 4.477-10 10v20c0 5.523 4.477 10 10 10z"/><path d="m453.361 95.178c2.559 0 5.119-.976 7.071-2.929l14.142-14.143c3.905-3.905 3.905-10.237 0-14.142-3.905-3.904-10.237-3.904-14.142 0l-14.142 14.142c-3.905 3.905-3.905 10.237 0 14.143 1.953 1.952 4.512 2.929 7.071 2.929z"/><path d="m472 154.317c0 5.522 4.477 10 10 10h20c5.523 0 10-4.478 10-10s-4.477-10-10-10h-20c-5.523 0-10 4.478-10 10z"/><path d="m460.433 216.387c-3.905-3.903-10.237-3.904-14.142 0-3.905 3.905-3.906 10.237 0 14.143l14.142 14.143c1.953 1.952 4.512 2.929 7.071 2.929s5.119-.977 7.071-2.929c3.905-3.905 3.906-10.237 0-14.143z"/><path d="m374.221 252.097v20c0 5.522 4.477 10 10 10s10-4.478 10-10v-20c0-5.522-4.477-10-10-10s-10 4.477-10 10z"/><path d="m308.01 216.387-14.142 14.143c-3.905 3.905-3.905 10.237 0 14.143 1.953 1.952 4.512 2.929 7.071 2.929s5.119-.977 7.071-2.929l14.142-14.143c3.905-3.905 3.905-10.237 0-14.143-3.905-3.905-10.237-3.905-14.142 0z"/><path d="m266.442 164.317h20c5.523 0 10-4.478 10-10s-4.477-10-10-10h-20c-5.523 0-10 4.478-10 10 0 5.523 4.477 10 10 10z"/><path d="m308.01 92.249c1.953 1.952 4.512 2.929 7.071 2.929s5.119-.976 7.071-2.929c3.905-3.905 3.906-10.237 0-14.143l-14.142-14.142c-3.905-3.903-10.237-3.904-14.142 0-3.905 3.905-3.906 10.237 0 14.142z"/></g></svg>