<svg id="Capa_1" enable-background="new 0 0 512 512" height="512" viewBox="0 0 512 512" width="512" xmlns="http://www.w3.org/2000/svg"><g><circle cx="106.391" cy="353.794" r="10"/><path d="m467.484 142.273-235.037-44.805c-2.927-.557-5.951.219-8.247 2.118-2.296 1.9-3.626 4.725-3.626 7.705v13.717l-104.183 50.174v-81.21c12.135-9.132 19.998-23.65 19.998-39.972 0-27.57-22.43-50-50-50s-50 22.43-50 50c0 16.324 7.865 30.843 20.002 39.975v412.025c0 5.522 4.477 10 10 10h40c5.523 0 10-4.478 10-10v-108.206c0-5.522-4.477-10-10-10s-10 4.478-10 10v98.206h-20v-393.006c3.231.659 6.575 1.006 9.998 1.006 3.425 0 6.769-.348 10.002-1.007v214.801c0 5.522 4.477 10 10 10s10-4.478 10-10v-110.782l104.183 50.174v13.717c0 2.98 1.329 5.805 3.626 7.705 1.808 1.495 4.066 2.295 6.374 2.295.623 0 1.25-.059 1.873-.177l235.037-44.806c4.716-.899 8.127-5.022 8.127-9.823v-70c0-4.801-3.411-8.924-8.127-9.824zm-411.095-92.273c0-16.542 13.458-30 30-30s30 13.458 30 30-13.458 30-30 30-30-13.458-30-30zm320.872 95.434v83.325l-58.34 11.122v-105.568zm-247.823 41.663 91.136-43.89v87.781zm111.136-67.72 58.347 11.123v113.194l-58.347 11.123zm215.037 94.446-58.35 11.124v-75.7l58.35 11.124z"/></g></svg>