<svg id="Capa_1" enable-background="new 0 0 512 512" height="512" viewBox="0 0 512 512" width="512" xmlns="http://www.w3.org/2000/svg"><g><g><path d="m256 472c-119.102 0-216-96.897-216-216s96.898-216 216-216 216 96.898 216 216-96.897 216-216 216zm0-412c-108.075 0-196 87.925-196 196s87.925 196 196 196 196-87.925 196-196-87.925-196-196-196z"/></g><g><path d="m256.174 293.759c-2.052 0-4.124-.166-6.203-.503-12.115-1.967-22.212-9.391-27.701-20.369l-37.201-74.401c-1.925-3.85-1.17-8.499 1.873-11.543 3.045-3.043 7.695-3.798 11.543-1.873l74.402 37.201c10.978 5.489 18.401 15.586 20.368 27.701 1.966 12.115-1.884 24.042-10.563 32.722-7.189 7.189-16.609 11.065-26.518 11.065zm-39.8-77.384 23.784 47.568c2.579 5.158 7.324 8.646 13.017 9.57 5.697.924 11.298-.885 15.376-4.963s5.887-9.682 4.963-15.375-4.412-10.438-9.57-13.017z"/></g><g><path d="m256 120c-5.523 0-10-4.478-10-10v-20c0-5.522 4.477-10 10-10 5.522 0 10 4.478 10 10v20c0 5.522-4.478 10-10 10z"/></g><g><path d="m359.237 162.763c-2.56 0-5.118-.977-7.071-2.929-3.905-3.905-3.905-10.237 0-14.143l14.143-14.143c3.906-3.904 10.236-3.904 14.143 0 3.905 3.905 3.905 10.237 0 14.143l-14.143 14.143c-1.954 1.952-4.512 2.929-7.072 2.929z"/></g><g><path d="m422 266h-20c-5.522 0-10-4.478-10-10 0-5.523 4.478-10 10-10h20c5.522 0 10 4.477 10 10 0 5.522-4.478 10-10 10z"/></g><g><path d="m373.38 383.38c-2.56 0-5.118-.977-7.071-2.929l-14.143-14.143c-3.905-3.905-3.905-10.237 0-14.143 3.906-3.904 10.236-3.904 14.143 0l14.143 14.143c3.905 3.905 3.905 10.237 0 14.143-1.954 1.952-4.512 2.929-7.072 2.929z"/></g><g><path d="m276 392h-40c-5.523 0-10-4.478-10-10s4.477-10 10-10h40c5.522 0 10 4.478 10 10s-4.478 10-10 10z"/></g><g><path d="m276 432h-40c-5.523 0-10-4.478-10-10s4.477-10 10-10h40c5.522 0 10 4.478 10 10s-4.478 10-10 10z"/></g><g><path d="m138.62 383.38c-2.559 0-5.118-.977-7.071-2.929-3.905-3.905-3.906-10.237-.001-14.143l14.142-14.143c3.905-3.904 10.237-3.904 14.142 0 3.905 3.905 3.906 10.237.001 14.143l-14.142 14.143c-1.952 1.952-4.512 2.929-7.071 2.929z"/></g><g><path d="m110 266h-20c-5.523 0-10-4.478-10-10 0-5.523 4.477-10 10-10h20c5.523 0 10 4.477 10 10 0 5.522-4.477 10-10 10z"/></g><g><path d="m152.762 162.763c-2.56 0-5.118-.977-7.071-2.929l-14.142-14.143c-3.905-3.905-3.905-10.237.001-14.143 3.905-3.903 10.237-3.903 14.142 0l14.142 14.143c3.905 3.905 3.905 10.237-.001 14.143-1.952 1.952-4.512 2.929-7.071 2.929z"/></g><g><path d="m256 512c-68.38 0-132.667-26.629-181.019-74.98-48.353-48.353-74.981-112.64-74.981-181.02s26.628-132.667 74.981-181.02c48.352-48.351 112.639-74.98 181.019-74.98 62.223 0 122.204 22.593 168.897 63.616 4.148 3.646 4.557 9.964.912 14.113-3.646 4.147-9.964 4.557-14.113.912-43.041-37.815-98.335-58.641-155.696-58.641-130.131 0-236 105.869-236 236s105.869 236 236 236 236-105.869 236-236c0-41.507-10.923-82.32-31.588-118.029-2.767-4.78-1.134-10.898 3.646-13.664 4.782-2.767 10.898-1.133 13.664 3.646 22.425 38.749 34.278 83.027 34.278 128.047 0 68.38-26.629 132.667-74.98 181.02-48.353 48.351-112.64 74.98-181.02 74.98z"/></g><g><circle cx="446.175" cy="99.95" r="10"/></g></g></svg>