<svg id="Capa_1" enable-background="new 0 0 512 512" height="512" viewBox="0 0 512 512" width="512" xmlns="http://www.w3.org/2000/svg"><g><path d="m462.387 294.331c-4.672-55.227-50.912-98.793-107.228-99.219.545-5.69.841-11.411.841-17.112 0-25.631-5.334-50.371-15.854-73.531-2.284-5.029-8.209-7.254-13.24-4.969-5.028 2.284-7.253 8.212-4.969 13.24 9.332 20.545 14.063 42.501 14.063 65.26 0 6.286-.38 12.6-1.122 18.853-7.255 1.316-14.343 3.372-21.168 6.13 1.51-8.201 2.29-16.545 2.29-24.982 0-76.094-61.906-138-138-138s-138 61.906-138 138c0 34.537 12.868 67.608 36.232 93.122 20.601 22.496 47.747 37.396 77.373 42.7-.808 4.664-1.253 9.451-1.253 14.342 0 1.941.09 3.861.221 5.77-75.288-12.259-132.573-78.423-132.573-155.935 0-87.121 70.879-158 158-158 35.699 0 69.383 11.616 97.407 33.592 4.348 3.409 10.633 2.648 14.04-1.698 3.408-4.347 2.647-10.632-1.698-14.04-31.581-24.764-69.531-37.854-109.749-37.854-98.149 0-178 79.851-178 178 0 45.032 16.854 88.006 47.455 121.005 28.853 31.113 67.422 50.726 109.233 55.714 11.136 33.247 42.555 57.281 79.501 57.281h216.586c32.657 0 59.225-26.568 59.225-59.225 0-29.382-21.513-53.837-49.613-58.444zm-402.387-116.331c0-65.065 52.935-118 118-118s118 52.935 118 118c0 13.235-2.185 26.21-6.493 38.614-11.45 8.546-21.1 19.238-28.397 31.491-8.038-2.511-16.386-3.778-24.92-3.778-34.266 0-63.78 20.675-76.768 50.197-56.321-9.01-99.422-58.795-99.422-116.524zm392.775 214h-216.586c-35.2 0-63.837-28.637-63.837-63.836 0-35.2 28.637-63.837 63.837-63.837 8.87 0 17.472 1.797 25.566 5.341h.001c16.127 7.073 28.738 20.636 34.597 37.215 1.451 4.105 5.31 6.67 9.429 6.67 1.105 0 2.23-.186 3.333-.574 5.207-1.841 7.936-7.555 6.096-12.762-6.478-18.325-19.248-33.821-35.749-43.811 16.112-25.699 43.999-41.305 74.864-41.305 45.708 0 83.428 34.851 87.986 79.376-7.689 1.373-15.041 4.255-21.66 8.534-4.638 2.998-5.967 9.189-2.968 13.827 1.913 2.96 5.126 4.571 8.407 4.571 1.859 0 3.742-.518 5.42-1.604 6.33-4.093 13.683-6.256 21.263-6.256 21.629 0 39.225 17.596 39.225 39.224.001 21.631-17.595 39.227-39.224 39.227z"/><circle cx="310.117" cy="74.219" r="10"/><path d="m203.334 206.247c5.525-8.737 6.18-19.529 1.749-28.869l-18.048-38.049c-1.655-3.489-5.173-5.714-9.035-5.714s-7.38 2.225-9.035 5.714l-18.048 38.049c-4.431 9.34-3.776 20.132 1.749 28.869s14.996 13.953 25.334 13.953 19.809-5.216 25.334-13.953zm-33.765-10.69c-1.866-2.951-2.079-6.452-.582-9.606l9.013-19.002 9.013 19.001c1.497 3.154 1.284 6.655-.582 9.606s-4.938 4.644-8.431 4.644-6.564-1.692-8.431-4.643z"/><path d="m178 110c5.523 0 10-4.478 10-10v-10c0-5.522-4.477-10-10-10s-10 4.478-10 10v10c0 5.522 4.477 10 10 10z"/><path d="m122.846 108.703c-3.906-3.904-10.236-3.904-14.143 0-3.905 3.905-3.905 10.237 0 14.143l7.071 7.071c1.953 1.952 4.512 2.929 7.071 2.929 2.56 0 5.118-.977 7.071-2.929 3.905-3.905 3.905-10.237 0-14.143z"/><path d="m110 178c0-5.523-4.478-10-10-10h-10c-5.522 0-10 4.477-10 10s4.478 10 10 10h10c5.522 0 10-4.477 10-10z"/><path d="m115.774 226.083-7.071 7.071c-3.905 3.905-3.905 10.237 0 14.143 1.953 1.952 4.512 2.929 7.071 2.929s5.118-.977 7.071-2.929l7.071-7.071c3.905-3.905 3.905-10.237 0-14.143-3.905-3.904-10.235-3.904-14.142 0z"/><path d="m246 178c0 5.523 4.477 10 10 10h10c5.522 0 10-4.477 10-10s-4.478-10-10-10h-10c-5.523 0-10 4.477-10 10z"/><path d="m233.154 132.846c2.56 0 5.118-.977 7.071-2.929l7.071-7.071c3.905-3.905 3.905-10.237 0-14.143-3.906-3.904-10.236-3.904-14.143 0l-7.071 7.071c-3.905 3.905-3.905 10.237 0 14.143 1.954 1.952 4.513 2.929 7.072 2.929z"/><path d="m250.752 436.853c-1.808-3.011-5.062-4.853-8.573-4.853-3.512 0-6.766 1.842-8.573 4.853l-17.482 29.114c-5.711 9.513-5.858 20.956-.393 30.612s15.353 15.421 26.447 15.421c11.096 0 20.982-5.765 26.447-15.421 5.466-9.656 5.318-21.101-.394-30.612zm.469 49.875c-.898 1.585-3.574 5.272-9.042 5.272s-8.145-3.688-9.042-5.272c-.897-1.585-2.681-5.778.134-10.466l8.908-14.835 8.907 14.835c2.814 4.687 1.032 8.881.135 10.466z"/><path d="m340.75 436.853c-1.808-3.011-5.061-4.853-8.573-4.853-3.511 0-6.766 1.842-8.573 4.853l-17.481 29.114c-5.712 9.512-5.859 20.956-.394 30.611 5.465 9.657 15.353 15.422 26.448 15.422s20.982-5.765 26.447-15.421c5.466-9.656 5.318-21.101-.393-30.612zm.469 49.875c-.898 1.585-3.574 5.272-9.043 5.272-5.468 0-8.145-3.688-9.042-5.272-.897-1.585-2.68-5.778.135-10.466l8.908-14.835 8.907 14.835c2.814 4.687 1.032 8.881.135 10.466z"/><path d="m430.75 436.853c-1.808-3.011-5.061-4.853-8.573-4.853-3.511 0-6.766 1.842-8.573 4.853l-17.481 29.114c-5.712 9.512-5.859 20.956-.394 30.611 5.465 9.657 15.353 15.422 26.448 15.422s20.982-5.765 26.447-15.421c5.466-9.656 5.318-21.101-.393-30.612zm.469 49.875c-.898 1.585-3.574 5.272-9.043 5.272-5.468 0-8.145-3.688-9.042-5.272-.897-1.585-2.68-5.778.135-10.466l8.908-14.835 8.907 14.835c2.814 4.687 1.032 8.881.135 10.466z"/></g></svg>