<svg id="Capa_1" enable-background="new 0 0 512 512" height="512" viewBox="0 0 512 512" width="512" xmlns="http://www.w3.org/2000/svg"><g><g><path d="m201.042 315.339c-19.299 0-35-15.701-35-35s15.701-35 35-35 35 15.701 35 35-15.701 35-35 35zm0-50c-8.272 0-15 6.729-15 15 0 8.272 6.728 15 15 15 8.271 0 15-6.728 15-15s-6.728-15-15-15z"/></g><g><path d="m310.958 430.661c-19.299 0-35-15.701-35-35s15.701-35 35-35 35 15.701 35 35-15.701 35-35 35zm0-50c-8.272 0-15 6.728-15 15 0 8.271 6.728 15 15 15 8.271 0 15-6.729 15-15s-6.729-15-15-15z"/></g><g><path d="m198.206 402.83c-2.648 0-5.29-1.045-7.257-3.117-3.801-4.007-3.635-10.337.372-14.138l115.592-109.66c4.009-3.802 10.336-3.634 14.138.372 3.801 4.007 3.635 10.337-.372 14.138l-115.592 109.66c-1.935 1.835-4.41 2.745-6.881 2.745z"/></g><g><path d="m256 512c-64.696 0-122.345-33.613-154.211-89.917-31.867-56.303-31.01-123.03 2.294-178.496l143.344-238.735c1.807-3.01 5.061-4.852 8.573-4.852s6.766 1.842 8.573 4.852l78.096 130.066c2.843 4.734 1.31 10.878-3.426 13.721-4.734 2.844-10.878 1.31-13.721-3.426l-69.522-115.787-134.771 224.456c-29.544 49.206-30.306 108.402-2.035 158.351 28.27 49.948 79.412 79.767 136.806 79.767s108.536-29.819 136.806-79.768c28.271-49.948 27.509-109.145-2.035-158.351l-24.067-40.081c-2.843-4.734-1.31-10.878 3.426-13.721 4.735-2.844 10.879-1.31 13.721 3.426l24.066 40.082c33.304 55.466 34.161 122.193 2.294 178.496-31.866 56.304-89.515 89.917-154.211 89.917z"/></g><g><circle cx="354.686" cy="174.359" r="10"/></g></g></svg>