<svg id="Capa_1" enable-background="new 0 0 512.026 512.026" height="512" viewBox="0 0 512.026 512.026" width="512" xmlns="http://www.w3.org/2000/svg"><g><circle cx="325.176" cy="107.92" r="10"/><path d="m236.528 46.444c-34.612 0-68.558 2.204-98.167 6.374-5.469.771-9.278 5.828-8.508 11.297.704 4.996 4.985 8.607 9.89 8.607.464 0 .935-.032 1.407-.099 28.702-4.042 61.683-6.179 95.378-6.179 5.523 0 10-4.477 10-10 0-5.522-4.477-10-10-10z"/><path d="m160.815 169.464c19.112 3.364 40.37 5.83 63.184 7.328.223.015.444.021.665.021 5.224 0 9.622-4.057 9.969-9.345.362-5.511-3.812-10.271-9.323-10.634-22.093-1.451-42.626-3.829-61.027-7.068-5.438-.96-10.624 2.677-11.582 8.115-.959 5.44 2.675 10.626 8.114 11.583z"/><path d="m222.309 309.214c-22.096-1.451-42.628-3.83-61.027-7.069-5.436-.957-10.624 2.675-11.583 8.114-.958 5.439 2.675 10.625 8.115 11.583 19.109 3.364 40.367 5.83 63.184 7.329.223.015.444.022.665.022 5.224 0 9.622-4.057 9.969-9.345.362-5.511-3.812-10.272-9.323-10.634z"/><path d="m425.107 161.552c33.041-9.548 49.168-21.886 49.168-37.552 0-5.522-4.477-10-10-10s-10 4.478-10 10c0 1.663-4.551 7.811-23.529 14.708 4.799-24.248 6.324-50.099 4.539-77.362 0-.004-.001-.007-.001-.011-.48-19.039-21.53-34.43-62.614-45.746-36.496-10.053-84.845-15.589-136.142-15.589s-99.645 5.536-136.142 15.59c-41.562 11.448-62.635 27.063-62.635 46.41 0 12.742 9.145 23.864 27.259 33.244 9.274 5.445 17.424 12.096 24.214 19.804 25.925 29.429 25.457 66.814 20.949 109.835-29.926-8.429-36.452-16.836-36.452-18.825 0-5.522-4.477-10-10-10s-10 4.478-10 10c0 16.439 17.756 29.215 54.184 38.946-.002.015-.004.031-.005.046-4.995 42.748-10.636 91.144 5.596 138.192-17.877-6.871-27.908-15.529-27.908-22.584 0-5.523-4.477-10-10-10s-10 4.477-10 10c0 16.251 13.893 30.713 39.121 40.722 5.939 2.357 12.398 4.422 19.247 6.198 20.583 39.632 56.68 74.241 107.645 103.124 6.868 4.184 16.2-2.18 14.832-10.099-4.7-33.287-3.441-64.348 3.724-92.749 7.256-1.837 14.088-3.993 20.342-6.474 25.228-10.009 39.121-24.471 39.121-40.722 0-5.523-4.477-10-10-10s-10 4.477-10 10c0 7.588-11.608 17.031-32.099 24.11 1.166-3 2.397-5.97 3.71-8.9 17.641-39.377 43.688-61.687 71.265-85.307 14.566-12.476 29.391-25.179 43.282-40.645 4.301-.852 8.477-1.749 12.501-2.696 42.393-9.98 63-23.444 63-41.161 0-5.522-4.477-10-10-10s-10 4.478-10 10c0 1.974-6.43 10.264-35.757 18.626 5.196-7.713 10.138-16.098 14.74-25.337 5.992-12.041 10.938-24.653 14.845-37.796zm-313.408-50.262c34.898 8.224 78.668 12.71 124.83 12.71 16.814 0 33.499-.601 49.592-1.786 5.508-.405 9.644-5.199 9.239-10.707-.405-5.507-5.19-9.647-10.708-9.238-15.606 1.148-31.797 1.731-48.123 1.731-49.552 0-96.016-5.281-130.83-14.871-37.927-10.447-47.948-22.314-47.948-27.129s10.021-16.682 47.948-27.129c34.814-9.59 81.277-14.871 130.829-14.871 49.553 0 96.016 5.281 130.831 14.871 37.926 10.447 47.947 22.314 47.947 27.129 0 5.189-11.137 17.832-53.287 28.541-5.353 1.36-8.59 6.802-7.229 12.155 1.36 5.353 6.802 8.59 12.154 7.229 21.109-5.363 37.515-11.889 48.961-19.385-.485 19.132-2.851 37.373-7.081 54.636-.708.172-1.404.344-2.133.516-34.927 8.223-81.519 12.751-131.194 12.751-5.523 0-10 4.478-10 10s4.477 10 10 10c47.048 0 91.591-3.99 126.744-11.29-2.856 8.003-6.147 15.767-9.886 23.276-8.057 16.179-17.192 29.453-27.064 41.117-32.148 5.807-71.397 8.954-112.794 8.954-45.761 0-88.897-3.846-122.715-10.879 4.655-43.276 6.052-84.037-18.083-118.331zm112.736 371.754c-32.666-20.885-57.546-44.446-74.394-70.417 11.968 1.62 24.611 2.474 37.56 2.474 14.216 0 28.065-1.026 41.052-2.97-4.651 22.339-6.063 46.033-4.218 70.913zm95.047-207.674c-28.039 24.015-57.031 48.848-76.506 92.319-3.377 7.538-6.312 15.279-8.806 23.211-13.512 2.604-29.158 4.2-46.568 4.2-18.833 0-35.601-1.868-49.837-4.859-1.831-4.056-3.485-8.163-4.958-12.32-15.003-42.356-10.24-86.034-5.301-128.346 34.874 7.07 78.725 10.927 124.992 10.927 31.814 0 62.485-1.825 89.882-5.263-7.437 6.886-15.106 13.457-22.898 20.131z"/></g></svg>