<svg id="Capa_1" enable-background="new 0 0 512 512" height="512" viewBox="0 0 512 512" width="512" xmlns="http://www.w3.org/2000/svg"><g><path d="m502 60.008h-42c-5.522 0-10 4.478-10 10s4.478 10 10 10h32v205.566h-472v-205.566h360c5.522 0 10-4.478 10-10s-4.478-10-10-10h-370c-5.523 0-10 4.478-10 10v265.566c0 5.523 4.477 10 10 10h206v46.418h-83c-5.522 0-10 4.478-10 10v40c0 5.522 4.478 10 10 10h246c5.522 0 10-4.478 10-10v-40c0-5.522-4.478-10-10-10h-83v-46.418h206c5.522 0 10-4.477 10-10v-265.566c0-5.523-4.478-10-10-10zm-133 371.984h-226v-20h226zm-93-40h-40v-46.418h40zm-256-66.418v-20h472v20z"/><circle cx="420" cy="70.008" r="10"/><path d="m418.78 205.22h30c5.522 0 10-4.477 10-10 0-5.522-4.478-10-10-10h-30c-5.522 0-10 4.478-10 10s4.478 10 10 10z"/><path d="m67.108 185.22c-5.522 0-10 4.478-10 10 0 5.523 4.478 10 10 10h30c5.522 0 10-4.477 10-10 0-5.522-4.478-10-10-10z"/><path d="m352.256 204.398 9.932 3.557c1.114.399 2.252.589 3.372.589 4.104 0 7.951-2.546 9.414-6.631 1.862-5.199-.843-10.924-6.042-12.786l-9.928-3.556c1.58-8.811 1.142-17.802-1.287-26.418l9.53-4.504c4.994-2.359 7.129-8.32 4.769-13.313-2.36-4.994-8.322-7.13-13.314-4.769l-9.531 4.504c-5.114-7.345-11.782-13.392-19.593-17.767l3.555-9.926c1.862-5.199-.843-10.924-6.043-12.785-5.2-1.863-10.923.843-12.785 6.043l-3.553 9.921c-8.992-1.617-18.009-1.118-26.445 1.238l-4.478-9.477c-2.359-4.993-8.322-7.13-13.314-4.769-4.993 2.359-7.129 8.32-4.768 13.314l4.475 9.47c-7.326 5.127-13.547 11.968-18.042 20.215-18.952.819-35.994 10.389-46.506 25.838-3.359-.751-6.801-1.13-10.298-1.13-26.003 0-47.158 21.155-47.158 47.158s21.155 47.158 47.158 47.158h108.998c19.173 0 34.772-15.599 34.772-34.772 0-2.324-.235-4.592-.672-6.789 7.354-5.121 13.406-11.812 17.782-19.613zm-38.567-66.441c.007.002.013.006.019.008s.013.004.019.006c9.925 3.562 17.871 10.766 22.384 20.288.006.012.01.025.016.038.005.01.011.018.016.028 4.5 9.542 5.02 20.264 1.459 30.201-2.524 7.051-6.923 13.125-12.686 17.675-4.161-4.151-9.362-7.261-15.178-8.89-3.276-22.227-18.884-40.488-39.621-47.609 3.549-4.235 7.903-7.622 12.745-10.01.206-.081.413-.154.616-.25.248-.117.483-.25.717-.384 8.982-4.021 19.473-4.684 29.494-1.101zm-13.315 107.617h-108.998c-14.975 0-27.158-12.183-27.158-27.158s12.184-27.158 27.158-27.158c3.774 0 7.433.764 10.874 2.271h.001c6.862 3.01 12.227 8.781 14.719 15.834 1.451 4.104 5.31 6.67 9.429 6.67 1.105 0 2.23-.186 3.333-.574 5.207-1.841 7.936-7.554 6.096-12.762-3.042-8.606-8.552-16.103-15.688-21.616 7.402-9.159 18.523-14.595 30.689-14.595 18.978 0 34.872 13.442 38.675 31.303-2.8.921-5.49 2.18-7.994 3.8-4.638 2.999-5.966 9.189-2.966 13.827 1.913 2.959 5.126 4.57 8.406 4.57 1.86 0 3.742-.518 5.421-1.604 2.379-1.538 5.147-2.352 8.003-2.352 8.146 0 14.772 6.627 14.772 14.771 0 8.146-6.626 14.773-14.772 14.773z"/></g></svg>