<svg id="Capa_1" enable-background="new 0 0 512 512" height="512" viewBox="0 0 512 512" width="512" xmlns="http://www.w3.org/2000/svg"><g><path d="m399.65 75.799c-15.628-22.763-36.481-41.687-60.306-54.729-25.542-13.981-53.566-21.07-83.291-21.07-26.672 0-52.106 5.756-75.596 17.108-22.253 10.755-41.697 25.971-57.79 45.227-33.979 40.657-48.136 93.526-38.842 145.053 3.69 20.452 11.22 40.171 22.382 58.61l145.988 241.181c1.813 2.995 5.059 4.821 8.554 4.821.046 0 .093 0 .14-.001 3.548-.05 6.804-1.976 8.557-5.06l67.703-119.213c2.728-4.803 1.045-10.906-3.757-13.634-4.803-2.728-10.907-1.045-13.634 3.757l-59.283 104.386-137.158-226.594c-9.891-16.339-16.556-33.768-19.809-51.804-8.24-45.678 4.337-92.578 34.505-128.676 29.729-35.571 71.65-55.161 118.041-55.161 51.494 0 97.823 24.464 127.108 67.119 29.431 42.868 35.938 97.199 17.405 145.337-2.462 6.393-5.628 13.011-9.409 19.668l-31.894 56.16c-2.728 4.803-1.045 10.906 3.757 13.634s10.906 1.046 13.634-3.757l31.894-56.16c4.27-7.519 7.864-15.041 10.682-22.359 20.903-54.29 13.583-115.539-19.581-163.843z"/><circle cx="348.208" cy="348.004" r="10"/><path d="m383.554 175c0-70.304-57.196-127.5-127.5-127.5s-127.5 57.196-127.5 127.5 57.196 127.5 127.5 127.5 127.5-57.196 127.5-127.5zm-127.5 107.5c-59.276 0-107.5-48.225-107.5-107.5s48.224-107.5 107.5-107.5 107.5 48.225 107.5 107.5-48.224 107.5-107.5 107.5z"/><path d="m316.379 166.389c-4.132-25.505-26.309-45.042-52.963-45.042-17.755 0-33.886 8.511-43.838 22.683-2.794-.569-5.649-.856-8.546-.856-23.567 0-42.74 19.173-42.74 42.74s19.173 42.74 42.74 42.74h96.038c17.549 0 31.827-14.277 31.827-31.826-.001-14.312-9.497-26.448-22.518-30.439zm-9.31 42.264h-96.038c-12.539 0-22.74-10.201-22.74-22.74s10.201-22.74 22.74-22.74c3.16 0 6.223.64 9.104 1.901.001.001.001.001.002.001 5.745 2.521 10.237 7.353 12.325 13.257 1.451 4.105 5.309 6.67 9.428 6.67 1.106 0 2.231-.186 3.333-.575 5.207-1.841 7.936-7.554 6.095-12.761-2.618-7.406-7.254-13.902-13.25-18.818 6.288-7.237 15.407-11.501 25.347-11.501 15.784 0 29.057 10.924 32.674 25.607-2.192.806-4.301 1.849-6.285 3.132-4.638 2.999-5.968 9.189-2.969 13.827 1.914 2.96 5.126 4.572 8.407 4.572 4.232.191 7.463-3.854 11.827-3.485 6.521 0 11.827 5.306 11.827 11.827s-5.306 11.826-11.827 11.826z"/></g></svg>