<svg id="Capa_1" enable-background="new 0 0 511.987 511.987" height="512" viewBox="0 0 511.987 511.987" width="512" xmlns="http://www.w3.org/2000/svg"><g><g><path d="m99.494 265.993c-5.523 0-10-4.478-10-10 0-91.809 74.691-166.5 166.5-166.5 5.522 0 10 4.478 10 10s-4.478 10-10 10c-80.78 0-146.5 65.72-146.5 146.5 0 5.523-4.478 10-10 10z"/></g><g><path d="m255.994 422.493c-5.522 0-10-4.478-10-10 0-5.523 4.478-10 10-10 80.78 0 146.5-65.72 146.5-146.5 0-5.522 4.478-10 10-10s10 4.478 10 10c0 91.809-74.692 166.5-166.5 166.5z"/></g><g><path d="m318.019 511.987c-39.438.001-78.21-8.125-113.238-23.842-.032-.015-.064-.029-.097-.045-38.059-17.565-72.386-44.638-108.029-85.197-.041-.047-.082-.095-.122-.142-2.554-3.018-4.991-6.112-7.35-9.105-7.893-10.017-15.36-19.495-25.766-24.407-.471.076-1.208.292-1.94.523-6.064 4.35-9.125 11.688-10.169 24.219-1.938 21.316.795 43.807 7.897 65.115 1.613 4.843-.679 10.123-5.318 12.252-4.641 2.128-10.138.419-12.754-3.963-23.159-38.777-37.127-83.3-40.392-128.752-3.338-46.454 4.65-92.744 23.101-133.863.015-.032.029-.064.045-.097 17.565-38.059 44.638-72.386 85.197-108.029.047-.041.095-.082.142-.122 3.018-2.554 6.112-4.991 9.105-7.35 10.017-7.893 19.495-15.36 24.407-25.766-.076-.471-.292-1.208-.523-1.94-4.35-6.064-11.688-9.125-24.219-10.169-21.32-1.942-43.808.794-65.115 7.897-4.841 1.61-10.123-.677-12.252-5.318-2.128-4.64-.42-10.137 3.963-12.754 38.777-23.159 83.3-37.127 128.752-40.393 46.455-3.337 92.745 4.651 133.863 23.101.033.016.065.03.099.045 2.488 1.149 4.971 2.345 7.378 3.553 4.936 2.478 6.93 8.487 4.452 13.423-2.477 4.937-8.487 6.93-13.423 4.452-2.198-1.103-4.467-2.195-6.743-3.247-56.187-25.195-121.624-28.508-181.806-10.896.857.064 1.713.136 2.566.213 12.23 1.019 29.773 4.239 39.991 20.296.439.691.792 1.432 1.051 2.207 1.253 3.761 3.148 9.443 1.047 15.747-.096.287-.204.569-.325.847-6.781 15.499-18.984 25.114-30.786 34.413-2.964 2.335-5.764 4.541-8.492 6.847-38.333 33.698-63.805 65.884-80.149 101.278-25.195 56.185-28.508 121.62-10.897 181.802.064-.856.136-1.712.213-2.564 1.019-12.23 4.239-29.773 20.296-39.991.69-.439 1.432-.792 2.207-1.051 3.761-1.253 9.445-3.145 15.747-1.047.287.096.569.204.847.325 15.499 6.781 25.114 18.984 34.413 30.786 2.335 2.964 4.541 5.764 6.847 8.492 33.698 38.333 65.884 63.805 101.279 80.15 56.184 25.193 121.62 28.506 181.804 10.896-.857-.064-1.713-.136-2.566-.213-12.23-1.019-29.772-4.239-39.991-20.296-.44-.69-.792-1.432-1.051-2.207-1.253-3.761-3.147-9.443-1.047-15.747.096-.287.204-.569.325-.847 6.781-15.499 18.984-25.114 30.786-34.413 2.964-2.335 5.764-4.541 8.492-6.847 38.333-33.698 63.805-65.884 80.15-101.278 25.194-56.186 28.508-121.62 10.896-181.803-.064.856-.136 1.712-.213 2.564-1.019 12.23-4.239 29.772-20.296 39.991-.691.439-1.432.792-2.207 1.051-3.76 1.254-9.444 3.146-15.747 1.047-.287-.096-.569-.204-.847-.325-15.499-6.781-25.114-18.984-34.413-30.786-2.335-2.965-4.543-5.767-6.849-8.495-10.723-12.196-21.003-22.794-31.429-32.398-4.061-3.741-4.321-10.067-.579-14.13 3.74-4.062 10.067-4.322 14.13-.579 10.969 10.104 21.751 21.218 32.965 33.978.041.047.082.095.122.142 2.554 3.018 4.991 6.112 7.35 9.106 7.893 10.017 15.36 19.495 25.766 24.407.471-.076 1.208-.292 1.94-.523 6.065-4.35 9.125-11.688 10.169-24.219 1.938-21.316-.795-43.807-7.897-65.115-1.613-4.843.679-10.123 5.318-12.252 4.641-2.129 10.138-.419 12.754 3.963 23.159 38.777 37.127 83.3 40.392 128.752 3.338 46.454-4.65 92.744-23.101 133.863-.015.032-.029.064-.045.097-17.565 38.059-44.638 72.386-85.197 108.029-.047.041-.095.082-.142.122-3.018 2.554-6.112 4.991-9.105 7.35-10.017 7.893-19.495 15.36-24.407 25.766.076.471.292 1.208.523 1.94 4.35 6.064 11.688 9.125 24.219 10.169 21.319 1.94 43.807-.795 65.115-7.897 4.843-1.609 10.123.677 12.252 5.318 2.128 4.64.42 10.137-3.963 12.754-38.777 23.159-83.3 37.127-128.752 40.393-6.88.492-13.767.738-20.624.739z"/></g><g><path d="m362.494 265.993c-5.522 0-10-4.478-10-10 0-53.21-43.29-96.5-96.5-96.5-5.522 0-10-4.477-10-10 0-5.522 4.478-10 10-10 64.238 0 116.5 52.262 116.5 116.5 0 5.523-4.478 10-10 10z"/></g><g><path d="m255.994 372.493c-64.238 0-116.5-52.262-116.5-116.5 0-5.522 4.478-10 10-10 5.523 0 10 4.478 10 10 0 53.21 43.29 96.5 96.5 96.5 5.522 0 10 4.477 10 10s-4.478 10-10 10z"/></g><g><path d="m255.994 322.493c-36.668 0-66.5-29.832-66.5-66.5s29.832-66.5 66.5-66.5 66.5 29.832 66.5 66.5-29.832 66.5-66.5 66.5zm0-113c-25.641 0-46.5 20.859-46.5 46.5s20.859 46.5 46.5 46.5 46.5-20.859 46.5-46.5-20.86-46.5-46.5-46.5z"/></g><g><circle cx="344.525" cy="57.13" r="10"/></g></g></svg>