<svg id="Capa_1" enable-background="new 0 0 512 512" height="512" viewBox="0 0 512 512" width="512" xmlns="http://www.w3.org/2000/svg"><g><path d="m509.072 3.097c-3.529-3.528-9.119-3.915-13.1-.905l-129.126 97.654 22.092-77.993c1.161-4.1-.402-8.485-3.896-10.925-3.492-2.439-8.149-2.396-11.597.106l-175.291 127.275c6.816-17.116 13.631-34.233 20.445-51.355 1.387-3.485.707-7.455-1.762-10.28s-6.313-4.028-9.95-3.12l-42.085 10.515c-76.931 19.207-135.504 76.301-156.682 152.726-21.179 76.425-.349 155.532 55.721 211.612 74.423 77.449 202.202 84.21 285.887 18.945 39.135-29.79 66.24-71.259 78.387-119.923l10.512-42.094c.91-3.641-.295-7.483-3.119-9.952-2.825-2.472-6.794-3.151-10.278-1.763-17.119 6.816-34.234 13.632-51.346 20.449l31.407-43.271c3.244-4.47 2.252-10.723-2.217-13.968-4.468-3.244-10.721-2.251-13.964 2.218l-51.689 71.215c-2.615 3.603-2.534 8.5.199 12.014 2.731 3.514 7.458 4.797 11.593 3.151 21.763-8.673 43.523-17.341 65.288-26.008l-5.785 23.163c-21.826 87.445-97.298 147.539-187.803 149.536-53.7 1.191-104.448-19.366-142.93-57.855-50.909-50.916-69.822-122.739-50.593-192.127 19.228-69.388 72.408-121.225 142.256-138.665l23.158-5.786c-8.666 21.769-17.333 43.532-26.004 65.3-1.647 4.136-.363 8.862 3.15 11.595 3.513 2.732 8.41 2.814 12.012.199l179.868-130.597-22.348 78.894c-1.171 4.135.43 8.555 3.977 10.98 3.546 2.427 8.247 2.313 11.673-.278l95.468-72.2-72.187 95.485c-2.591 3.428-2.703 8.128-.278 11.676 2.426 3.548 6.845 5.15 10.979 3.977l78.879-22.351-32.683 45.029c-3.244 4.47-2.252 10.723 2.217 13.968 4.469 3.244 10.721 2.251 13.964-2.218l49.643-68.396c2.503-3.449 2.546-8.105.107-11.6-2.439-3.493-6.823-5.058-10.923-3.896l-77.979 22.096 97.638-129.149c3.009-3.982 2.623-9.574-.905-13.103z"/><ellipse cx="420.3" cy="233.097" rx="9.83" ry="9.832" transform="matrix(1 -.007 .007 1 -1.631 2.965)"/><path d="m284.664 245.002-89.352-43.041c-2.742-1.32-5.936-1.32-8.677 0l-89.352 43.041c-2.741 1.32-4.732 3.817-5.409 6.784l-22.067 96.699c-.677 2.967.034 6.08 1.931 8.459l61.831 77.551c1.897 2.379 4.774 3.765 7.817 3.765h99.175c3.043 0 5.921-1.387 7.818-3.767l61.829-77.549c1.898-2.379 2.609-5.493 1.931-8.461l-22.066-96.697c-.677-2.967-2.667-5.464-5.409-6.784zm-188.693 78.708 6.464-4.061 32.263 11.294 11.291 32.269-18.189 28.948-2.211.249-35.216-44.169zm139.775 94.549h-28.459l2.53-22.471 19.433-12.209 21.648 7.574 1.969 5.632zm31.73-39.796c-1.18-2.128-3.095-3.78-5.428-4.597l-30.739-10.755c-2.87-1.002-6.043-.647-8.62.972l-27.587 17.332c-2.577 1.619-4.277 4.324-4.617 7.349l-3.321 29.496h-40.963l-6.786-8.511c1.085-.757 2.031-1.719 2.753-2.868l23.314-37.106c1.619-2.577 1.977-5.751.971-8.624l-14.473-41.358c-1.005-2.872-3.263-5.13-6.134-6.135l-41.351-14.476c-.914-.32-1.86-.487-2.806-.534l8.607-37.716 80.676-38.861 80.676 38.861 19.924 87.308z"/><path d="m238.62 272.475c-1.005-2.873-3.263-5.131-6.136-6.136l-17.989-6.295c-2.871-1.005-6.045-.646-8.621.971l-16.136 10.141c-2.576 1.619-4.275 4.324-4.616 7.348l-2.134 18.941c-.341 3.024.714 6.039 2.865 8.191l13.476 13.479c1.885 1.886 4.433 2.929 7.07 2.929.372 0 .746-.021 1.12-.063l18.938-2.135c3.023-.341 5.727-2.04 7.346-4.617l10.139-16.14c1.619-2.577 1.976-5.751.971-8.623zm-19.186 28.036-9.368 1.056-6.666-6.668 1.055-9.37 7.983-5.017 8.899 3.114 3.114 8.9z"/></g></svg>