<svg id="Capa_1" enable-background="new 0 0 512 512" height="512" viewBox="0 0 512 512" width="512" xmlns="http://www.w3.org/2000/svg"><g><path d="m502 38.872h-492c-5.523 0-10 4.478-10 10v40c0 5.522 4.477 10 10 10h28.014l42.032 282.239c.729 4.9 4.937 8.527 9.891 8.527s9.161-3.627 9.891-8.527l30.348-203.786 19.253 68.651c1.211 4.316 5.145 7.3 9.629 7.3 4.482 0 8.418-2.983 9.629-7.3l16.764-59.778 32.174 278.079c.584 5.045 4.855 8.851 9.934 8.851 5.078 0 9.35-3.806 9.934-8.851l25.784-222.85 20.802 139.684c.729 4.9 4.936 8.527 9.891 8.527s9.161-3.627 9.891-8.527l16.184-108.668c.814-5.462-2.955-10.55-8.418-11.363-5.462-.811-10.55 2.954-11.363 8.418l-6.293 42.252-22.051-148.044c-.73-4.907-4.944-8.527-9.889-8.527-.055 0-.11 0-.165.001-5.016.082-9.194 3.867-9.771 8.85l-24.538 212.09-28.08-242.7c-.549-4.747-4.38-8.441-9.144-8.819-4.763-.393-9.128 2.668-10.419 7.268l-20.857 74.374-22.254-79.354c-1.273-4.542-5.538-7.569-10.257-7.28-4.707.296-8.568 3.842-9.263 8.508l-27.346 183.631-31.703-212.876h267.436l-13.626 91.498c-.814 5.462 2.955 10.55 8.418 11.363.499.074.995.11 1.485.11 4.871 0 9.139-3.564 9.878-8.528l14.065-94.443h25.292l41.254 147.104c1.211 4.316 5.146 7.3 9.629 7.3 4.482 0 8.418-2.983 9.629-7.3l41.255-147.104h29.051c5.522 0 10-4.478 10-10v-40c0-5.522-4.478-10-10-10zm-79.936 167.37-30.11-107.37h60.221zm69.936-127.37h-472v-20h472z"/><circle cx="316.042" cy="231.407" r="10"/></g></svg>