<svg id="Capa_1" enable-background="new 0 0 512.002 512.002" height="512" viewBox="0 0 512.002 512.002" width="512" xmlns="http://www.w3.org/2000/svg"><g><path d="m246.52 84.251c0-19.162-15.589-34.751-34.751-34.751s-34.752 15.589-34.752 34.751v243.427c-22.754 12.494-37.127 36.522-37.127 62.941 0 39.634 32.245 71.878 71.879 71.878s71.878-32.244 71.878-71.878c0-26.327-14.372-50.352-37.127-62.92zm-34.751-14.751c8.134 0 14.751 6.617 14.751 14.751v176.3h-29.503v-176.3c0-8.134 6.618-14.751 14.752-14.751zm51.878 321.119c0 28.605-23.273 51.878-51.878 51.878-28.606 0-51.879-23.272-51.879-51.878 0-20.383 12.498-39.487 31.099-47.538 3.659-1.584 6.028-5.19 6.028-9.177v-53.353h29.503v53.353c0 3.974 2.354 7.571 5.995 9.163 18.912 8.266 31.132 26.932 31.132 47.552z"/><path d="m48.012 156.795h49.503c5.522 0 10-4.477 10-10s-4.478-10-10-10h-49.503c-5.522 0-10 4.477-10 10s4.478 10 10 10z"/><path d="m72.763 94.917h24.752c5.522 0 10-4.477 10-10s-4.478-10-10-10h-24.752c-5.522 0-10 4.477-10 10s4.478 10 10 10z"/><path d="m107.515 270.551c0-5.523-4.478-10-10-10h-49.503c-5.522 0-10 4.477-10 10s4.478 10 10 10h49.503c5.523 0 10-4.477 10-10z"/><path d="m97.515 198.673h-24.752c-5.522 0-10 4.477-10 10s4.478 10 10 10h24.752c5.522 0 10-4.477 10-10s-4.477-10-10-10z"/><path d="m472.129 188.652c4.985-28.543-.066-57.712-14.943-82.244-24.152-41.407-70.534-65.255-118.193-60.775-4.733.446-8.499 4.163-9.006 8.891-.506 4.728 2.386 9.158 6.918 10.597 22.922 7.275 39.737 26.505 43.89 50.21 3.044 17.113-.943 34.372-11.228 48.6-10.171 14.07-25.679 23.532-42.597 25.968-.012.002-.023.003-.035.005-10.478 1.558-21.048.508-30.913-3.013v-21.973c0-5.523-4.478-10-10-10-5.523 0-10 4.477-10 10v97.143c-.001.034 0 .068 0 .103v45.516c0 2.842 1.209 5.55 3.326 7.447 21.48 19.251 33.801 46.767 33.801 75.494 0 27.777-11.061 53.715-31.145 73.037-20.066 19.304-46.432 29.347-74.248 28.266-52.895-2.048-95.641-45.105-97.316-98.025-.949-29.989 11.351-58.701 33.749-78.772 2.117-1.897 3.326-4.605 3.326-7.447v-223.426c0-35.43 28.824-64.254 64.254-64.254 35.429 0 64.253 28.824 64.253 64.254v.663c0 5.523 4.477 10 10 10 5.522 0 10-4.477 10-10v-.663c0-46.458-37.796-84.254-84.254-84.254-46.457 0-84.253 37.796-84.253 84.254v219.07c-24.692 23.831-38.153 56.815-37.065 91.207 2.007 63.367 53.194 114.924 116.533 117.377 1.62.063 3.234.094 4.845.094 31.505-.001 61.189-11.946 84.042-33.932 24.04-23.127 37.279-54.184 37.279-87.45 0-32.892-13.477-64.45-37.127-87.294v-23.702c16.906 8.328 35.365 12.634 54.17 12.633 7.116 0 14.286-.616 21.434-1.861 39.243-6.189 73.043-32.231 90.425-69.678 4.14-8.92 7.186-18.122 9.171-27.419.589-1.272.928-2.683.93-4.177 0-.159-.016-.313-.023-.47zm-27.636-63.722c7.814 16.304 10.82 34.577 8.956 52.861-10.545-3.228-18.729-12.139-20.719-23.518-2.009-11.486 2.774-22.751 11.763-29.343zm-71.933 83.834c1.765 10.082-5.002 19.721-15.084 21.486-10.073 1.763-19.719-5.006-21.487-15.101-.391-2.224-.364-4.458.046-6.623 10.092-2.262 19.692-6.414 28.276-12.177 4.31 2.773 7.345 7.232 8.249 12.415zm-4.119 61.887c-.059.009-.116.018-.174.028-25.189 4.41-50.646-.52-72.245-13.887v-48.971c6.437 1.705 13.047 2.624 19.709 2.759-.092 2.664.088 5.349.558 8.024 3.276 18.711 19.597 31.928 37.97 31.927 2.198 0 4.428-.189 6.666-.581 20.944-3.666 35.001-23.689 31.337-44.629-1.536-8.801-6.025-16.605-12.501-22.305 2.129-2.337 4.147-4.787 6.013-7.369 13.487-18.658 18.712-41.323 14.715-63.793-2.848-16.263-10.253-30.923-20.978-42.57 21.706 6.38 41.075 19.795 54.668 38.45-15.973 10.813-24.61 30.203-21.15 49.984 3.438 19.657 17.981 34.899 36.507 39.749-1.497 5.01-3.369 9.967-5.626 14.828-14.58 31.413-42.793 53.228-75.469 58.356z"/><circle cx="286.02" cy="124.917" r="10"/></g></svg>