<svg id="Capa_1" enable-background="new 0 0 512 512" height="512" viewBox="0 0 512 512" width="512" xmlns="http://www.w3.org/2000/svg"><g><circle cx="248.677" cy="10" r="10"/><path d="m411 216h-15v-70c0-21.256-13.339-39.445-32.081-46.667l-43.864-93.577c-1.647-3.513-5.176-5.756-9.055-5.756h-22.323c-5.522 0-10 4.477-10 10s4.478 10 10 10h15.967l35.625 76h-208.537l35.625-76h41.32c5.522 0 10-4.477 10-10s-4.478-10-10-10h-47.677c-3.879 0-7.408 2.243-9.055 5.756l-43.864 93.577c-18.742 7.222-32.081 25.411-32.081 46.667v220c0 21.256 13.339 39.445 32.081 46.667l43.864 93.577c1.646 3.513 5.176 5.756 9.055 5.756h150c3.879 0 7.408-2.243 9.055-5.756l43.864-93.577c18.742-7.222 32.081-25.411 32.081-46.667v-70h15c13.785 0 25-11.215 25-25v-30c0-13.785-11.215-25-25-25zm-315 140v-200h280v200zm30-240h220c13.036 0 24.152 8.361 28.28 20h-276.56c4.128-11.639 15.244-20 28.28-20zm178.644 376h-137.288l-35.625-76h208.537zm41.356-96h-220c-13.036 0-24.152-8.361-28.28-20h276.56c-4.128 11.639-15.244 20-28.28 20zm70-125c0 2.757-2.243 5-5 5h-15v-40h15c2.757 0 5 2.243 5 5z"/><path d="m316.441 247.152c-4.351-33.313-32.917-59.123-67.398-59.123-23.233 0-44.271 11.504-56.758 30.532-4.165-1.028-8.448-1.547-12.808-1.547-29.488 0-53.479 23.99-53.479 53.479 0 29.487 23.99 53.478 53.479 53.478h127.536c21.497 0 38.985-17.488 38.985-38.985.002-18.248-12.601-33.607-29.557-37.834zm-9.426 56.819h-127.536c-18.46 0-33.479-15.018-33.479-33.478s15.019-33.479 33.479-33.479c4.653 0 9.163.942 13.404 2.8.002.001.004.001.006.002 8.456 3.711 15.069 10.823 18.142 19.515 1.451 4.105 5.309 6.67 9.428 6.67 1.105 0 2.231-.186 3.333-.575 5.207-1.841 7.935-7.554 6.095-12.761-3.643-10.307-10.405-19.216-19.167-25.548 8.955-11.952 22.957-19.088 38.324-19.088 23.556 0 43.186 17.071 47.205 39.489-3.655 1.048-7.153 2.624-10.383 4.713-4.637 3-5.965 9.191-2.965 13.828 1.914 2.958 5.126 4.569 8.406 4.569 1.86 0 3.743-.518 5.422-1.604 3.059-1.979 6.615-3.024 10.286-3.024 10.469 0 18.985 8.517 18.985 18.985 0 10.469-8.517 18.986-18.985 18.986z"/></g></svg>