<svg id="Capa_1" enable-background="new 0 0 512.003 512.003" height="512" viewBox="0 0 512.003 512.003" width="512" xmlns="http://www.w3.org/2000/svg"><g><circle cx="295.216" cy="419.559" r="10"/><path d="m366.526 313.362c7.612 4.602 16.375 7.071 25.409 7.071 27.079 0 49.11-22.03 49.11-49.109 0-10.711-3.55-21.122-9.934-29.59 7.09-12.136 10.804-25.831 10.804-40.051 0-.354-.018-.701-.022-1.054 2.842-2.321 5.491-4.923 7.898-7.799 9.971-11.912 14.706-26.994 13.334-42.468-1.355-15.265-8.521-29.147-20.178-39.09-9.862-8.412-21.997-13.21-34.753-13.845-8.263-15.523-21.423-28.146-37.295-35.772-.032-.51-.071-1.016-.115-1.517-1.558-17.55-9.854-33.442-23.365-44.752-13.509-11.307-30.609-16.682-48.164-15.121-13.783 1.223-26.643 6.671-37.012 15.556-15.057-9.535-32.759-13.867-50.706-12.273-21.689 1.924-41.332 12.179-55.308 28.876-11.532 13.776-18.067 30.576-18.92 48.214-10.343-4.788-21.863-6.859-33.498-5.824-17.55 1.557-33.443 9.854-44.751 23.364s-16.68 30.615-15.123 48.165c1.505 16.965 9.325 32.369 22.048 43.594-.573 3.88-.869 7.81-.869 11.747 0 14.221 3.713 27.916 10.803 40.051-6.383 8.467-9.933 18.879-9.933 29.59 0 27.079 22.031 49.109 49.11 49.109 9.034 0 17.796-2.47 25.409-7.071 11.515 9.432 26.069 14.712 41.091 14.712 6.933 0 13.742-1.105 20.22-3.233v177.163c0 5.522 4.477 10 10 10h83.4c5.522 0 10-4.477 10-10v-42.444c0-5.522-4.478-10-10-10s-10 4.478-10 10v32.444h-63.4v-177.936c10.946-8.643 18.681-20.375 22.279-33.643 6.15 1.195 12.695 1.195 18.842 0 3.598 13.268 11.334 25.001 22.279 33.644v65.49c0 5.522 4.478 10 10 10s10-4.478 10-10v-54.72c6.478 2.128 13.288 3.233 20.22 3.233 15.022.001 29.574-5.279 41.09-14.711zm-292.131-202.347c7.88-9.414 18.954-15.195 31.183-16.28 13.505-1.199 26.787 3.604 36.438 13.175 3.159 3.133 8.01 3.804 11.901 1.641 3.89-2.163 5.883-6.636 4.888-10.975-.65-2.833-1.102-5.657-1.344-8.394-1.452-16.367 3.557-32.321 14.104-44.922 10.548-12.601 25.371-20.34 41.739-21.791 15.783-1.407 31.314 3.271 43.732 13.158 4.157 3.311 10.176 2.789 13.705-1.182 7.818-8.802 18.572-14.221 30.281-15.259 25.254-2.237 47.601 16.476 49.841 41.72.168 1.891.211 3.897.128 5.964-.172 4.297 2.422 8.223 6.441 9.749 15.79 5.996 28.66 18.315 35.313 33.798 1.676 3.9 5.638 6.323 9.868 6.029 20.574-1.4 38.77 14.155 40.591 34.684.9 10.152-2.206 20.047-8.749 27.863-6.542 7.815-15.735 12.615-25.889 13.516-8.914.794-17.858-1.594-25.19-6.712-3.486-2.434-8.128-2.398-11.575.09-9.085 6.554-19.806 10.542-31.005 11.535-34.357 3.053-64.781-22.422-67.828-56.775-.018-.212-.028-.425-.04-.637l-.04-.688c-.245-3.703-2.52-6.965-5.91-8.475-1.304-.581-2.689-.865-4.067-.865-2.205 0-4.391.73-6.186 2.142-9.381 7.383-20.637 11.844-32.554 12.9-1.352.12-2.785.196-4.259.227-5.226.106-9.488 4.218-9.782 9.437-.94 16.713-14.246 30.434-30.95 31.915-10.278.901-20.295-2.833-27.481-10.271-3.583-3.71-9.4-4.086-13.431-.868-7.056 5.632-15.552 9.031-24.57 9.831-12.229 1.087-24.147-2.656-33.561-10.537-9.414-7.88-15.195-18.954-16.28-31.183-1.083-12.228 2.659-24.147 10.538-33.56zm201.375 147.597c-2.893-1.652-6.418-1.759-9.401-.279-4.009 1.984-8.333 2.991-12.853 2.991s-8.844-1.007-12.852-2.991c-2.986-1.479-6.511-1.372-9.401.279-2.892 1.653-4.77 4.638-5.011 7.96-1.006 13.918-8.281 26.338-19.96 34.076-7.33 4.858-15.869 7.426-24.695 7.426-12.478 0-24.489-5.272-32.954-14.465-3.711-4.031-9.977-4.324-14.048-.656-5.356 4.824-12.281 7.48-19.498 7.48-16.051 0-29.11-13.059-29.11-29.109 0-8.171 3.302-15.742 9.299-21.317 3.708-3.447 4.254-9.122 1.272-13.214-7.469-10.246-11.423-22.358-11.439-35.03 9.51 3.819 19.848 5.387 30.349 4.454 10.104-.896 19.754-4.068 28.324-9.266 10.588 7.959 23.728 11.768 37.158 10.574 23.52-2.086 42.799-19.464 47.908-41.889 9.35-1.167 18.357-3.925 26.675-8.139 9.546 35.687 42.195 61.173 79.678 61.173 2.433 0 4.887-.107 7.355-.326 12.526-1.11 24.604-5.064 35.302-11.514 9.905 5.272 21.2 7.602 32.469 6.601 3.689-.327 7.292-1.002 10.78-1.987-1.498 9.12-5.098 17.748-10.639 25.348-2.982 4.092-2.436 9.767 1.272 13.214 5.997 5.576 9.3 13.146 9.3 21.317 0 16.051-13.059 29.109-29.11 29.109-7.217 0-14.142-2.656-19.497-7.48-4.07-3.667-10.337-3.374-14.048.656-8.466 9.192-20.478 14.465-32.955 14.465-8.826 0-17.365-2.567-24.696-7.426-11.678-7.738-18.953-20.158-19.96-34.076-.245-3.322-2.123-6.306-5.014-7.959z"/><path d="m362.259 362.503c-16.542 0-30 13.458-30 30s13.458 30 30 30 30-13.458 30-30-13.458-30-30-30zm0 40c-5.514 0-10-4.486-10-10s4.486-10 10-10 10 4.486 10 10-4.487 10-10 10z"/><path d="m435.306 434.119c-16.542 0-30 13.458-30 30s13.458 30 30 30 30-13.458 30-30-13.458-30-30-30zm0 40c-5.514 0-10-4.486-10-10s4.486-10 10-10 10 4.486 10 10c0 5.513-4.487 10-10 10z"/><path d="m465.496 324.253c-16.542 0-30 13.458-30 30s13.458 30 30 30 30-13.458 30-30-13.458-30-30-30zm0 40c-5.514 0-10-4.486-10-10s4.486-10 10-10 10 4.486 10 10-4.486 10-10 10z"/><path d="m144.772 353.503c-16.542 0-30 13.458-30 30s13.458 30 30 30 30-13.458 30-30-13.458-30-30-30zm0 40c-5.514 0-10-4.486-10-10s4.486-10 10-10 10 4.486 10 10-4.486 10-10 10z"/><path d="m76.802 426.936c-16.542 0-30 13.458-30 30s13.458 30 30 30 30-13.458 30-30-13.458-30-30-30zm0 40c-5.514 0-10-4.486-10-10s4.486-10 10-10 10 4.486 10 10-4.486 10-10 10z"/><path d="m76.507 363.503c0-16.542-13.458-30-30-30s-30 13.458-30 30 13.458 30 30 30 30-13.458 30-30zm-30 10c-5.514 0-10-4.486-10-10s4.486-10 10-10 10 4.486 10 10-4.486 10-10 10z"/></g></svg>