<svg id="Capa_1" enable-background="new 0 0 512 512" height="512" viewBox="0 0 512 512" width="512" xmlns="http://www.w3.org/2000/svg"><g><path d="m371.64 214.341c1.703 3.372 5.158 5.492 8.925 5.492.064 0 .127-.001.191-.002 3.841-.072 7.301-2.339 8.901-5.832l14.357-31.325 42.379 13.064c3.711 1.145 7.751.035 10.358-2.844 2.607-2.88 3.312-7.008 1.806-10.589l-10.767-25.607 29.856-27.991c2.723-2.552 3.797-6.408 2.788-10.001-1.01-3.593-3.936-6.324-7.589-7.084l-25.487-5.305 12.005-44.908c.922-3.449-.065-7.129-2.589-9.654-2.525-2.524-6.204-3.509-9.654-2.59l-44.91 12.005-5.304-25.486c-.76-3.654-3.492-6.58-7.085-7.59-3.593-1.011-7.449.064-10.001 2.787l-27.922 29.784-26.462-11.55c-3.601-1.571-7.789-.889-10.704 1.745-2.915 2.633-4.018 6.73-2.819 10.472l13.85 43.223-31.235 14.316c-3.492 1.601-5.759 5.061-5.832 8.901-.073 3.841 2.061 7.384 5.49 9.116l42.067 21.244-23.904 23.903c-3.905 3.905-3.906 10.237 0 14.143 1.953 1.952 4.512 2.929 7.071 2.929s5.119-.977 7.071-2.929l23.904-23.904zm-29.481-95.301c4.601-2.108 6.901-7.322 5.356-12.143l-9.807-30.604 12.658 5.524c3.878 1.693 8.401.761 11.295-2.325l19.585-20.892 3.538 16.998c.56 2.692 2.204 5.034 4.544 6.477 2.341 1.442 5.171 1.856 7.828 1.147l38.417-10.27-10.27 38.417c-.71 2.655-.295 5.487 1.147 7.828 1.442 2.34 3.785 3.984 6.476 4.544l16.999 3.538-20.891 19.585c-3.051 2.859-4 7.315-2.379 11.171l5.164 12.28-30.296-9.339c-4.795-1.475-9.946.828-12.037 5.391l-9.357 20.417-18.11-35.859c-.963-1.907-2.511-3.455-4.418-4.418l-35.859-18.11z"/><path d="m38.301 133.776h125.41c36.882 0 66.888-30.006 66.888-66.888s-30.006-66.888-66.888-66.888c-28.302 0-53.651 17.92-63.079 44.591-1.841 5.207.888 10.921 6.096 12.762 5.207 1.841 10.92-.89 12.761-6.096 6.608-18.696 24.38-31.257 44.222-31.257 25.854 0 46.888 21.034 46.888 46.889 0 25.854-21.034 46.888-46.888 46.888h-125.41c-5.523 0-10 4.478-10 10s4.477 9.999 10 9.999z"/><path d="m163.711 378.224h-125.41c-5.523 0-10 4.478-10 10s4.477 10 10 10h125.41c25.854 0 46.888 21.034 46.888 46.888s-21.034 46.889-46.888 46.889c-19.842 0-37.614-12.56-44.223-31.257-1.841-5.207-7.555-7.933-12.761-6.096-5.207 1.841-7.936 7.555-6.096 12.762 9.429 26.67 34.778 44.59 63.08 44.59 36.882 0 66.888-30.006 66.888-66.889 0-36.882-30.006-66.887-66.888-66.887z"/><path d="m424.861 268.233h-73.973c-5.523 0-10 4.478-10 10s4.477 10 10 10h73.973c25.854 0 46.888 21.034 46.888 46.889 0 25.853-21.034 46.888-46.888 46.888-19.842 0-37.614-12.562-44.222-31.257-1.841-5.206-7.556-7.932-12.761-6.096-5.207 1.841-7.936 7.555-6.096 12.762 9.428 26.671 34.777 44.591 63.079 44.591 36.882 0 66.888-30.006 66.888-66.888 0-36.883-30.005-66.889-66.888-66.889z"/><path d="m270.889 268.233h-40.002c-5.523 0-10 4.478-10 10s4.477 10 10 10h40.002c5.523 0 10-4.478 10-10s-4.477-10-10-10z"/><circle cx="310.889" cy="278.233" r="10"/><path d="m37.322 353.815 28.64-28.64c11.439 8.503 25.038 12.981 39.077 12.981 5.994 0 12.069-.816 18.088-2.484 23.386-6.481 40.856-24.408 46.735-47.953l22.78-91.242c.851-3.406-.148-7.01-2.631-9.493-2.483-2.482-6.085-3.481-9.494-2.631l-91.243 22.779c-23.544 5.878-41.471 23.35-47.952 46.735-5.575 20.117-1.63 40.836 10.503 57.159l-28.646 28.647c-3.905 3.905-3.905 10.237 0 14.143 1.953 1.952 4.512 2.929 7.071 2.929s5.119-.978 7.072-2.93zm23.274-94.607c4.531-16.35 17.063-28.564 33.523-32.673l75.084-18.745-18.746 75.084c-4.109 16.46-16.324 28.992-32.672 33.523-16.349 4.528-33.271.073-45.268-11.923-11.996-11.996-16.452-28.917-11.921-45.266z"/></g></svg>