<svg id="Capa_1" enable-background="new 0 0 512.002 512.002" height="512" viewBox="0 0 512.002 512.002" width="512" xmlns="http://www.w3.org/2000/svg"><g><path d="m340.255 303.326v-21.652c0-5.523-4.477-10-10-10s-10 4.477-10 10v26.005c0 2.842 1.21 5.55 3.326 7.447 21.48 19.251 33.8 46.768 33.8 75.495 0 27.777-11.061 53.715-31.145 73.037-20.065 19.304-46.426 29.352-74.248 28.266-52.895-2.048-95.641-45.105-97.316-98.025-.95-29.989 11.352-58.701 33.749-78.772 2.117-1.897 3.326-4.605 3.326-7.447v-223.426c0-35.43 28.824-64.254 64.254-64.254s64.254 28.824 64.254 64.254v117.419c0 5.523 4.477 10 10 10s10-4.477 10-10v-117.419c0-46.458-37.797-84.254-84.254-84.254-46.458 0-84.254 37.796-84.254 84.254v219.071c-24.692 23.831-38.154 56.815-37.065 91.206 2.006 63.367 53.193 114.924 116.533 117.377 1.62.063 3.234.094 4.845.094 31.505-.001 61.189-11.946 84.043-33.932 24.039-23.127 37.279-54.184 37.279-87.45-.001-32.892-13.477-64.45-37.127-87.294z"/><circle cx="330.254" cy="241.673" r="10"/><path d="m92.244 156.795h49.502c5.523 0 10-4.477 10-10s-4.477-10-10-10h-49.502c-5.523 0-10 4.477-10 10s4.477 10 10 10z"/><path d="m116.996 94.917h24.751c5.523 0 10-4.477 10-10s-4.477-10-10-10h-24.751c-5.523 0-10 4.477-10 10s4.477 10 10 10z"/><path d="m151.747 270.551c0-5.523-4.477-10-10-10h-49.503c-5.523 0-10 4.477-10 10s4.477 10 10 10h49.502c5.524 0 10.001-4.477 10.001-10z"/><path d="m141.747 198.673h-24.751c-5.523 0-10 4.477-10 10s4.477 10 10 10h24.751c5.523 0 10-4.477 10-10s-4.477-10-10-10z"/><path d="m370.255 156.795h49.502c5.523 0 10-4.477 10-10s-4.477-10-10-10h-49.502c-5.523 0-10 4.477-10 10s4.477 10 10 10z"/><path d="m370.255 94.917h24.751c5.523 0 10-4.477 10-10s-4.477-10-10-10h-24.751c-5.523 0-10 4.477-10 10s4.477 10 10 10z"/><path d="m419.757 260.551h-49.502c-5.523 0-10 4.477-10 10s4.477 10 10 10h49.502c5.523 0 10-4.477 10-10s-4.477-10-10-10z"/><path d="m370.255 218.673h24.751c5.523 0 10-4.477 10-10s-4.477-10-10-10h-24.751c-5.523 0-10 4.477-10 10s4.477 10 10 10z"/><path d="m290.752 84.251c0-19.162-15.589-34.751-34.751-34.751s-34.751 15.589-34.751 34.751v243.448c-22.755 12.569-37.127 36.593-37.127 62.92 0 39.634 32.244 71.878 71.878 71.878s71.878-32.244 71.878-71.878c0-26.328-14.372-50.352-37.127-62.92zm-34.751-14.751c8.134 0 14.751 6.617 14.751 14.751v114.422h-29.502v-114.422c0-8.134 6.617-14.751 14.751-14.751zm51.878 321.119c0 28.605-23.272 51.878-51.878 51.878s-51.878-23.272-51.878-51.878c0-20.621 12.22-39.286 31.132-47.552 3.642-1.592 5.995-5.189 5.995-9.163v-115.231h29.502v115.231c0 3.974 2.353 7.571 5.995 9.163 18.912 8.266 31.132 26.931 31.132 47.552z"/></g></svg>