<svg id="Layer_1" data-name="Layer 1" xmlns="http://www.w3.org/2000/svg" viewBox="0 0 201 159.51"><defs><style>.cls-1{fill:#fff;}.cls-2{fill:#f9f9f9;}</style></defs><path class="cls-1" d="M230,150.22a81,81,0,0,0-.66-8.69c-.93-5.32-2-10.63-3.39-15.85a4.67,4.67,0,0,0-8.05-1.84c-1.45,1.7-1.26,3.57-.65,5.55a70.58,70.58,0,0,1,2.84,27.68c-3.56,39.14-39.85,68.07-79,62.87a70.44,70.44,0,0,1-60.65-78.63C86.55,93,140,65.18,182.9,88.16c5.21,2.79,9.83,6.7,14.64,10.21,1.65,1.2,3.4,2.13,5.17,1.08a7.3,7.3,0,0,0,2.94-3.61c.68-2-.67-3.55-2.17-4.85-20.06-17.39-43.26-24-69.21-18.71a79.32,79.32,0,0,0-62.4,92.23c7.58,42.57,48.76,71.59,91.38,64.39A80.15,80.15,0,0,0,230,150.22ZM208.66,109.7a4.61,4.61,0,0,0,4.73,4.72,4.75,4.75,0,0,0,4.65-4.63,4.82,4.82,0,0,0-4.79-4.76A4.7,4.7,0,0,0,208.66,109.7Z" transform="translate(-50 -70.49)"/><path d="M230,150.22a80.15,80.15,0,0,1-66.79,78.68c-42.62,7.2-83.8-21.82-91.38-64.39a79.32,79.32,0,0,1,62.4-92.23C160.22,67,183.42,73.6,203.48,91c1.5,1.3,2.85,2.87,2.17,4.85a7.3,7.3,0,0,1-2.94,3.61c-1.77,1-3.52.12-5.17-1.08-4.81-3.51-9.43-7.42-14.64-10.21C140,65.18,86.55,93,80.52,141.31a70.44,70.44,0,0,0,60.65,78.63c39.11,5.2,75.4-23.73,79-62.87a70.58,70.58,0,0,0-2.84-27.68c-.61-2-.8-3.85.65-5.55a4.67,4.67,0,0,1,8.05,1.84c1.4,5.22,2.46,10.53,3.39,15.85A81,81,0,0,1,230,150.22Z" transform="translate(-50 -70.49)"/><path d="M208.66,109.7a4.7,4.7,0,0,1,4.59-4.67,4.82,4.82,0,0,1,4.79,4.76,4.75,4.75,0,0,1-4.65,4.63A4.61,4.61,0,0,1,208.66,109.7Z" transform="translate(-50 -70.49)"/><rect class="cls-2" y="49.51" width="3" height="71"/><rect class="cls-2" x="198" y="49.51" width="3" height="71"/></svg>